<svg width="730" height="830" viewBox="0 0 730 830" fill="none" xmlns="http://www.w3.org/2000/svg"><g filter="url(#a)"><ellipse cx="383.5" cy="712" rx="186.5" ry="82" fill="url(#b)"/></g><path d="M80.154 187.382c-43.888 22.986-40.152 82.182-40.152 124.602 0 48.715-28.42 92.745-35.99 139.67-6.51 40.357-1.783 83.156 7.648 122.578 10.975 45.876 32.405 88.019 74.455 113.018 51.633 30.697 130.671-5.617 177.029-30.7 26.981-14.599 52.26-33.676 82.329-41.722 25.121-6.721 51.542-2.299 76.255 4.049 46.224 11.872 86.372 36.084 130.466 53.192 39.577 15.355 80.983 18.767 116.969-7.31 30.276-21.938 59.606-59.37 59.835-98.399.169-28.943-9.111-62.014-23.844-86.816-17.05-28.703-48.67-43.854-71.981-66.575-22.926-22.345-32.862-48.073-31.042-80.069 2.695-47.407 31.173-88.265 32.391-135.172.892-34.334-6.263-68.455-26.318-96.937-22.652-32.17-51.594-44.646-90.314-43.746-43.92 1.021-86.114 13.374-124.73 34.075-32.45 17.395-59.733 43.289-92.226 60.276-54.26 28.368-118.644 25.265-178.041 27.102-15.146.468-29.13 1.757-42.739 8.884Z" fill="#F8F24B" stroke="#F8F24B" stroke-width="1.971" stroke-linecap="round"/><path d="m103.821 263.682 94.76 417.093a31.02 31.02 0 0 0 21.613 22.916l96.08 27.928a35.37 35.37 0 0 0 25.296-2.137l198.902-96.391c9.434-4.583 14.493-15.089 12.095-25.311l-99.646-429.72c-1.763-7.667-8.124-13.403-15.938-14.403l-113.699-14.522c-5.85-.744-11.834.261-17.094 2.958l-196.588 99.353c-4.504 2.269-6.886 7.335-5.772 12.27z" fill="#1D1D1D" stroke="#000" stroke-width="3.155" stroke-miterlimit="10"/><path d="m223.786 685.975 23.965-11.526 174.037-83.777-67.057-273.38" stroke="#1D1D1D" stroke-width="3.155" stroke-miterlimit="10"/><path d="m159.512 422.782 56.874 249.006c2.164 9.376 9.225 16.848 18.406 19.362l87.377 24.117c5.752 1.572 11.858 1.007 17.161-1.665l184.909-92.364c7.707-3.849 11.722-12.609 9.682-21.146l-68.09-285.109" fill="#F8F24B"/><path d="m159.512 422.782 56.874 249.005c2.164 9.377 9.225 16.849 18.406 19.363l87.377 24.117c5.752 1.572 11.858 1.007 17.161-1.665l184.909-92.364c7.707-3.849 11.722-12.609 9.682-21.146l-68.09-285.109" stroke="#1D1D1D" stroke-width="3.155" stroke-miterlimit="10"/><path d="M160.911 421.245c.68-.699.772-.761 1.496-1.435.349-.315.689-.664 1.039-.98.349-.315.713-.707 1.072-.989 1.456-1.314 2.956-2.604 4.517-3.802s3.122-2.395 4.745-3.501a150 150 0 0 1 4.931-3.224 105 105 0 0 1 5.108-2.983c1.738-.955 3.494-1.843 5.25-2.731a108 108 0 0 1 5.384-2.512c1.818-.796 3.671-1.601 5.508-2.329a317 317 0 0 1 5.622-2.179c1.88-.703 3.803-1.383 5.702-2.019l5.765-1.926c1.933-.646 3.884-1.223 5.793-1.826 1.908-.602 3.894-1.189 5.845-1.767l5.855-1.733c1.952-.578 3.913-1.122 5.83-1.69l5.821-1.724a340 340 0 0 0 5.778-1.748c1.908-.602 3.826-1.171 5.691-1.797 1.866-.627 3.774-1.229 5.63-1.89s3.687-1.277 5.534-1.972c1.846-.694 3.625-1.369 5.419-2.122.691-.264 1.339-.553 2.021-.852.329-.127.682-.298 1.01-.426.329-.127.673-.332 1.011-.426 14.445-6.337 28.389-13.955 41.132-23.279 13.562-9.916 21.939-23.163 34.134-33.937 24.016-21.19 64.082-16.282 93.267-12.144 4.853.693 9.801 1.469 14.101 3.844 18.305 10.07-10.48 21.55-17.716 26.179-19.674 12.557-30.413 32.649-45.777 49.327-15.388 16.721-32.387 32.36-52.415 43.377-7.203 3.964-14.737 7.256-22.573 9.721-29.182 9.26-60.25 8.702-90.31 4.296l-6.845-1.05c-2.282-.351-4.583-.768-6.874-1.152a207 207 0 0 1-6.868-1.263c-2.276-.461-4.576-.879-6.852-1.34a520 520 0 0 1-6.848-1.45 527 527 0 0 1-6.832-1.528 342 342 0 0 1-6.792-1.647c-2.271-.572-4.507-1.153-6.778-1.725s-4.482-1.196-6.728-1.811a330 330 0 0 1-6.69-1.932l-1.904-.564-.952-.282c-.154-.03-1.623.45-1.679.248-.094-.339 1.354-1.286 1.471-1.392l-.068.019z" fill="#F8F24B" stroke="#000" stroke-width="3.155" stroke-miterlimit="10"/><path opacity=".3" d="M209.347 580.78s14.75 69.714 14.787 69.85c1.492 7.086 2.799 13.897 6.63 20.226 8.719 14.367 30.103 13.751 44.894 16.93l-66.355-107.03.034-.01z" fill="#fff" stroke="#1D1D1D" stroke-width=".221" stroke-miterlimit="10"/><path d="M329.995 733.095 225.129 282.721" stroke="#000" stroke-width="3.155" stroke-miterlimit="10"/><path d="m106.723 261.639 83.513 120.185 35.425-98.851-115.897-26.256c-2.763-.508-4.724 2.658-3.016 4.879z" fill="#1D1D1D" stroke="#000" stroke-width="3.155" stroke-miterlimit="10"/><path d="m191.298 378.432-29.261-105.487c-.393-1.42.456-2.82 1.833-3.239 11.257-3.523 54.197-26.976 57.455-28.754a3218 3218 0 0 1 65.388-35.069" stroke="#000" stroke-width="3.155" stroke-miterlimit="10"/><path d="M379.897 635.017s.264.036.409.032c10.042.892 18.241-8.009 17.21-18.027l-5.124-24.249-39.56-443.474c-.909-3.28-.362-5.507-.668-6.478l-.351-9.406a6.27 6.27 0 0 1 .903-5.275l97.147-100.28c1.637-2.238 1.525-5.265-.208-7.443-3.107-3.98-9.387-9.557-20.464-10.635-2.244-.215-4.492.736-5.798 2.591l-98.879 91.148a24.3 24.3 0 0 0-7.82 17.753c.011 5.422.152 10.917.31 11.747l4.736 25.74c.098.483.152.941.216 1.433l40.548 430.238 3.239 30.051c.814 7.53 6.632 13.671 14.144 14.501z" fill="#fff" stroke="#1D1D1D" stroke-width="3.155" stroke-miterlimit="10"/><path d="M323.8 106.715s-.366-.008-.554-.029c-.477-.013-1.031-.042-1.467.225-.494.319-.735.896-.898 1.487a9 9 0 0 0 .103 4.705c-2.109-.908-4.844-.004-6.011 1.959-1.167 1.962-.634 4.8 1.172 6.192-1.818.14-3.832.626-4.788 2.166-1.118 1.876-.111 4.327 1.26 5.986s3.205 3.152 3.887 5.221c-1.587.185-3.486 1.476-3.693 3.354-.26 2.476-.573 4.237 1.386 5.915 1.618 1.372 5.146 3.197 7.256 3.449 6.736.789 13.482 1.613 20.185 2.411 1.468.176 2.971.341 4.466.218a10.9 10.9 0 0 0 3.433-.88c1.263-.568 2.542-1.469 2.856-2.831s-.275-1.78-2.123-2.797c1.628.094 3.272-1.199 3.367-2.827.094-1.629-1.42-1.573-3.145-2.805 1.831.038 3.725-1.143 4.138-2.933.414-1.789-4.824-2.557-5.956-3.882 1.266.231 3.538 3.17 5.531.905.248-.287 1.173-2.073 1.291-2.433.418-1.645.36-3.559-.67-4.912-.916-1.202-2.421-1.768-3.814-2.328-6.332-2.613-11.151-7.648-16.809-11.504-1.438-.985-6.874-3.518-8.966-4.103-1.852-.506-1.524.022-1.524.022z" fill="#fff" stroke="#1D1D1D" stroke-width="3.155" stroke-miterlimit="10"/><path d="M320.367 112.252c4.669 4.494 13.491 9.912 18.73 13.702 3 2.153 6 4.307 9.648 5.116" fill="#fff"/><path d="M320.367 112.252c4.669 4.494 13.491 9.912 18.73 13.702 3 2.153 6 4.307 9.648 5.116" stroke="#1D1D1D" stroke-width="3.155" stroke-miterlimit="10"/><path d="M314.781 120.315c6.116 4.458 14.055 12.341 22.003 14.87 4.918 1.585 9.913 3.185 14.395 2.67" fill="#fff"/><path d="M314.781 120.315c6.116 4.458 14.055 12.341 22.003 14.87 4.918 1.585 9.913 3.185 14.395 2.67" stroke="#1D1D1D" stroke-width="3.155" stroke-miterlimit="10"/><path d="M315.602 133.492c8.686 5.456 24.572 9.169 34.749 10.023z" fill="#fff"/><path d="M315.602 133.492c8.686 5.456 24.572 9.169 34.749 10.023" stroke="#1D1D1D" stroke-width="3.155" stroke-miterlimit="10"/><path d="M450.086 27.53c2.02-3.147-2.065-9.374-9.125-13.907-7.06-4.534-14.422-5.658-16.443-2.511-2.02 3.146 2.065 9.373 9.125 13.907 7.06 4.533 14.422 5.658 16.443 2.51Z" fill="#000" stroke="#1D1D1D" stroke-width="3.155" stroke-miterlimit="10"/><path d="m227.911 281.955 218.143-114.58m-135.836 71.433 43.887-23.06M328.34 198.7a203 203 0 0 0 24.679-7.247c2.75-.981 5.54-2.082 7.738-4.003 2.198-1.92 3.647-4.835 3.032-7.577" stroke="#000" stroke-width="3.155" stroke-miterlimit="10"/><path d="m346.286 422.494 29.266-21.954 21.219 211.962c.67 6.878-1.558 13.94-6.64 18.591-4.034 3.704-9.601 5.685-16.263.178-5.192-4.277-8.198-10.652-8.855-17.352L346.277 422.46z" fill="#EDE77E" stroke="#1D1D1D" stroke-width="3.155" stroke-miterlimit="10"/><g opacity=".42" stroke="#fff" stroke-width="2.367" stroke-miterlimit="10" stroke-linecap="round"><path opacity=".3" d="m325.648 624.557 14.511 50.081m-1.682-45.853 10.253 35.388m2.786-29.76 5.22 18.032"/></g><path opacity=".11" d="M457.955 337.461c2.878-.652 5.751 1.172 6.403 4.05l58.558 259.935c.653 2.878-1.172 5.751-4.05 6.403-2.877.653-5.75-1.172-6.403-4.049l-58.557-259.936c-.653-2.877 1.172-5.75 4.049-6.403" fill="#fff"/><path d="M322.522 594.595c-2.74.36-5.144.225-7.221-.436l-3.121-12.17 11.047-5.067.188.676q.925 3.73 3.842 2.43c1.001-.46 1.647-1.149 1.982-2.043.334-.893.305-2.05-.055-3.48l-6.94-26.985-4.972 2.289-2.929-11.349 23.212-10.698 2.929 11.348-2.776 1.28 5.975 23.248q2.596 10.149-.857 17.387c-2.312 4.793-6.269 8.512-11.923 11.1-2.844 1.298-5.631 2.144-8.371 2.504zm37.214-21.135q-5.966-2.605-8.717-13.312l-5.956-23.18-2.777 1.28-2.929-11.349 20.469-9.428 2.93 11.348-2.196 1.01 6.898 26.706c.422 1.521.949 2.504 1.668 2.996.71.459 1.621.461 2.69-.018 1.069-.478 1.773-1.22 2.123-2.191s.335-2.205-.053-3.735l-6.898-26.706-2.196 1.01-2.93-11.349 18.956-8.717 2.929 11.348-2.776 1.28 5.956 23.18c1.835 7.138 1.645 13.016-.613 17.611s-6.208 8.204-11.92 10.844c-5.713 2.641-10.671 3.142-14.648 1.405zm36.901-12.726-2.93-11.349 2.777-1.28-8.016-31.129-2.776 1.28-2.93-11.349 21.025-9.655 2.93 11.348-2.776 1.28 8.015 31.129 2.777-1.28 2.929 11.349zm27.101-18.793c-4.929-2.675-8.621-8.896-11.144-18.647-4.791-18.587.044-31.216 14.481-37.842 3.483-1.622 6.898-2.569 10.158-2.891 3.261-.322 5.81-.191 7.622.435l4.469 17.293-13.267 6.12-1.278-4.998c-.487-1.758-1.095-2.9-1.935-3.432-.839-.532-1.895-.53-3.157.038s-2.083 1.416-2.497 2.55-.386 2.546.068 4.314l5.396 20.896c.488 1.758 1.096 2.9 1.935 3.432s1.895.53 3.157-.038 2.083-1.416 2.497-2.55.386-2.546-.068-4.314l-1.446-5.607 13.268-6.119 4.604 17.911c-1.192 2.005-3.136 4.183-5.806 6.635a36.2 36.2 0 0 1-9.252 6.026c-6.975 3.209-12.91 3.471-17.814.754zm36.074-10.257-2.929-11.349 2.776-1.28-8.016-31.129-2.776 1.28-2.93-11.349 37.331-17.164 5.395 20.896-12.401 5.698-2.466-9.548-6.68 3.091 2.817 10.943 4.88-2.227 2.041 7.881-4.881 2.228 3.159 12.304 6.68-3.09-2.817-10.943 12.401-5.698 5.747 22.292zM332.623 670.261l4.038-1.849-11.656-45.303-4.039 1.849-4.253-16.516 36.909-16.974c6.68-3.091 12.358-3.756 17.006-2.096 4.623 1.703 7.782 5.742 9.401 12.102q1.545 5.962.334 11.05c-.807 3.391-2.01 6.274-3.671 8.555-1.652 2.315-3.377 4.104-5.112 5.46l.281 1.014c3.909-1.266 7.746-1.348 11.453-.191 3.707 1.156 6.41 4.994 8.128 11.581 1.806 7.037 1.036 13.185-2.373 18.355-3.4 5.203-8.468 9.376-15.225 12.452l-36.91 16.974-4.253-16.516zm23.465-42.994c1.548-.72 2.602-1.777 3.095-3.152.526-1.384.497-3.196-.079-5.403l-.936-3.637q-.864-3.31-2.41-4.356c-1.064-.688-2.332-.664-3.914.066l-4.324 2.001 4.254 16.516 4.324-2.001zm7.983 28.517c1.548-.721 2.568-1.768 3.095-3.152q.79-2.077-.088-5.437l-1.152-4.414q-.864-3.311-2.41-4.357c-1.064-.687-2.332-.664-3.88.057l-4.905 2.271 4.47 17.293 4.904-2.27zm40.584-9.431c-7.006-3.992-12.329-13.074-15.96-27.214s-3.628-25.683.06-34.571 10.42-15.598 20.238-20.105c9.819-4.508 18.222-4.8 25.194-.799 7.006 3.992 12.319 13.041 15.96 27.214 3.64 14.174 3.628 25.683-.06 34.571s-10.42 15.598-20.238 20.106c-9.819 4.507-18.222 4.799-25.194.798m24.223-22.412c.605-1.625.568-3.726-.101-6.271l-7.843-30.376q-1.005-3.817-2.81-5.01-1.857-1.179-4.57.066c-1.809.829-3.028 2.078-3.633 3.702-.606 1.624-.569 3.726.101 6.271l7.843 30.376c.688 2.613 1.625 4.283 2.819 5.044 1.228.752 2.742.696 4.551-.134 1.809-.829 3.028-2.078 3.634-3.702zm86.124-37.58 3.39-1.559 4.254 16.515-30.38 13.998-4.254-16.516 3.289-1.531-6.787-6.091-.808.369-2.543 10.391 3.289-1.531 4.254 16.516-28.16 12.945-4.253-16.516 4.198-1.929 9.843-28.837-22.138-16.143-3.39 1.559-4.254-16.516 30.162-13.864 4.254 16.516-3.071 1.398 6.535 6.234.808-.37 2.282-10.282-3.072 1.398-4.253-16.516 27.898-12.836 4.254 16.516-4.198 1.929-9.666 28.424 22.483 16.338z" fill="#1D1D1D"/><defs><radialGradient id="b" cx="0" cy="0" r="1" gradientUnits="userSpaceOnUse" gradientTransform="rotate(89.776 -165.643 548.5)scale(128.001 291.124)"><stop/><stop offset="1" stop-color="#1D1D1D" stop-opacity="0"/></radialGradient><filter id="a" x="161.4" y="594.4" width="444.2" height="235.2" filterUnits="userSpaceOnUse" color-interpolation-filters="sRGB"><feFlood flood-opacity="0" result="BackgroundImageFix"/><feBlend in="SourceGraphic" in2="BackgroundImageFix" result="shape"/><feGaussianBlur stdDeviation="17.8" result="effect1_foregroundBlur_2137_63727"/></filter></defs></svg>