<svg width="1800" height="360" viewBox="0 0 1800 360" fill="none" xmlns="http://www.w3.org/2000/svg"><rect x="610.337" y=".684" width="326" height="47" rx="23.5" transform="rotate(30.219 610.337 .684)" fill="#1D1D1D"/><rect x="610.337" y=".684" width="326" height="47" rx="23.5" transform="rotate(30.219 610.337 .684)" stroke="#F8F24B"/><path d="m641.359 57.52-6.121-3.565 2.794-9.704-.155-.09-7.063 7.218-6.224-3.625 5.467-20.445 5.581 3.25-3.212 11.253.102.06 8.228-8.331 5.53 3.22L643.047 48l.103.06 8.203-8.346 5.066 2.95zm20.908-5.767q1.98 1.155 2.946 2.75 1.005 1.584.972 3.356-.007 1.787-1.011 3.51l-.929 1.594-8.564-4.988-.719 1.234q-.51.875-.239 1.652.297.794 1.171 1.302.9.524 1.677.254.818-.281 1.388-1.258l4.706 2.741q-.853 1.465-2.314 2.2-1.435.748-3.305.589-1.83-.17-3.811-1.324l-.385-.225q-2.058-1.198-3.269-2.903-1.172-1.715-1.284-3.71-.072-2.004 1.096-4.01l.465-.798q1.168-2.006 2.882-2.937 1.753-.941 3.783-.759 2.043.158 4.101 1.356zm-2.25 2.858a1.94 1.94 0 0 0-1.575-.194 2 2 0 0 0-1.248.96l-.21.36 3.55 2.068.209-.36q.435-.746.22-1.56a1.94 1.94 0 0 0-.946-1.274m14.772 6.606q.849-.333 2.008-.312 1.173-.005 2.331.67 1.414.822 2.086 2.213.697 1.406.456 3.297-.2 1.881-1.473 4.067l-.165.283q-1.273 2.185-2.903 3.27-1.589 1.071-3.283 1.083-1.695.012-3.29-.917-2.777-1.618-3.047-4.702l-2.873.91-1.8-1.049 10.786-18.517 5.092 2.966zm.666 2.523q-.669-.39-1.446-.119-.762.245-1.197.99l-2.172 3.73a2.2 2.2 0 0 0-.286 1.556q.163.784.832 1.173.669.39 1.431.145.777-.271 1.212-1.016l2.172-3.73q.435-.746.271-1.53-.148-.81-.817-1.199M701.634 69q2.109 1.228 3.244 3.301a8.8 8.8 0 0 1 1.17 4.436q.036 2.363-1.192 4.472l-1.289 2.212q-1.228 2.109-3.316 3.27a9.1 9.1 0 0 1-4.436 1.17q-2.349.01-4.457-1.218l-7.948-4.63 10.277-17.642zm-10.389 12.1 1.98 1.154q1.08.63 2.261.318 1.18-.312 1.809-1.392l2.562-4.398q.629-1.08.317-2.26-.31-1.18-1.391-1.81l-1.981-1.153zm24.771 1.96q1.98 1.153 2.945 2.748 1.006 1.585.973 3.357-.008 1.787-1.011 3.51l-.929 1.594-8.564-4.988-.72 1.235q-.509.874-.238 1.652.295.792 1.17 1.301.9.525 1.678.254.818-.281 1.387-1.258l4.707 2.741q-.854 1.465-2.315 2.2-1.434.748-3.305.589-1.83-.17-3.81-1.324l-.386-.224q-2.057-1.2-3.269-2.903-1.17-1.715-1.284-3.71-.072-2.005 1.097-4.012l.464-.797q1.169-2.005 2.882-2.937 1.753-.941 3.783-.759 2.044.158 4.102 1.356zm-2.25 2.857a1.94 1.94 0 0 0-1.575-.194 1.98 1.98 0 0 0-1.248.96l-.21.36 3.549 2.068.21-.36a1.98 1.98 0 0 0 .219-1.56 1.94 1.94 0 0 0-.945-1.274m23.59 9.917-11.95 10.641-5.889-3.431 3.411-15.614 5.427 3.16-2.446 8.634.18.105 6.303-6.386zm8.472 4.59q1.98 1.153 2.946 2.749 1.005 1.585.973 3.357-.007 1.786-1.011 3.51l-.929 1.594-8.565-4.988-.719 1.234q-.509.875-.239 1.652.297.793 1.171 1.302.9.524 1.678.254.818-.28 1.387-1.259l4.707 2.742q-.854 1.465-2.315 2.199-1.434.75-3.305.59-1.83-.17-3.81-1.324l-.386-.225q-2.057-1.198-3.269-2.903-1.171-1.715-1.284-3.71-.072-2.004 1.097-4.011l.464-.797q1.169-2.007 2.882-2.937 1.753-.941 3.783-.759 2.045.158 4.101 1.356zm-2.249 2.858a1.93 1.93 0 0 0-1.575-.194 1.98 1.98 0 0 0-1.249.96l-.209.36 3.549 2.068.21-.361a2 2 0 0 0 .219-1.559 1.93 1.93 0 0 0-.945-1.274m18.697-.132-10.786 18.517-5.093-2.966 10.786-18.518zm6.608 10.703q1.929 1.124 2.977 2.871a6.94 6.94 0 0 1 1.096 3.738q.03 2.016-1.078 3.919l-.314.54q-1.123 1.93-2.893 2.896a6.94 6.94 0 0 1-3.791.892q-2.023-.076-3.952-1.199l-.823-.48q-1.929-1.123-3.018-2.86a7.4 7.4 0 0 1-1.08-3.764q-.006-2 1.103-3.904l.314-.54q1.109-1.903 2.852-2.885a7.2 7.2 0 0 1 3.792-.892q2.063.065 3.992 1.189zm-2.224 2.872a1.94 1.94 0 0 0-1.575-.194 2 2 0 0 0-1.249.961l-2.232 3.832a2.1 2.1 0 0 0-.234 1.586q.215.813.96 1.248.747.435 1.56.22a2.1 2.1 0 0 0 1.264-.987l2.232-3.832a1.98 1.98 0 0 0 .219-1.56 1.94 1.94 0 0 0-.945-1.274m18.845 6.809q1.595.928 2.42 2.409.852 1.494.688 3.431-.123 1.926-1.396 4.113l-.165.283q-1.274 2.186-2.826 3.314-1.512 1.117-3.078 1.203-1.54.102-2.955-.722-2.416-1.409-2.451-3.597l-3.505 6.018-5.092-2.966 10.366-17.798 4.063 2.367-.421 1.787q2.397-.98 4.352.158m-2.97 2.438q-.669-.39-1.446-.119-.763.245-1.197.99l-2.172 3.73a2.2 2.2 0 0 0-.286 1.555q.162.784.832 1.174.667.389 1.431.145a2.22 2.22 0 0 0 1.212-1.017l2.172-3.729q.434-.745.271-1.53-.148-.81-.817-1.199m26.621 11.338a4.3 4.3 0 0 1 1.629 1.637q.6 1.04.591 2.239.005 1.174-.61 2.228l-5.557 9.542-4.99-2.906 4.854-8.333q.36-.617.224-1.213a1.24 1.24 0 0 0-.635-.921 1.33 1.33 0 0 0-1.14-.112q-.558.19-.918.808l-4.854 8.333-4.989-2.906 4.853-8.333q.36-.618.225-1.213a1.25 1.25 0 0 0-.635-.921q-.54-.315-1.14-.113-.56.191-.919.809l-4.853 8.333-4.99-2.907 7.655-13.142 3.807 2.217-.569 2.218q2.93-1.187 4.808-.093l.694.404q1.08.63 1.666 1.694t.535 2.275a4.8 4.8 0 0 1 2.268-.642 4.37 4.37 0 0 1 2.295.613zm13.427 7.821q1.98 1.153 2.946 2.749 1.006 1.584.972 3.356-.006 1.786-1.011 3.51l-.928 1.595-8.565-4.989-.719 1.235q-.509.874-.239 1.652.297.792 1.171 1.302.9.524 1.678.253.818-.281 1.387-1.258l4.707 2.741q-.855 1.467-2.315 2.2-1.435.748-3.305.589-1.83-.17-3.81-1.324l-.386-.224q-2.058-1.199-3.269-2.903-1.171-1.715-1.284-3.71-.072-2.005 1.097-4.011l.464-.798q1.169-2.005 2.882-2.937 1.754-.941 3.783-.759 2.044.157 4.101 1.356zm-2.25 2.857a1.93 1.93 0 0 0-1.574-.194 1.98 1.98 0 0 0-1.249.961l-.21.36 3.55 2.067.209-.36q.435-.745.22-1.56a1.93 1.93 0 0 0-.946-1.274m19.677 7.293a4.3 4.3 0 0 1 1.629 1.638 4.3 4.3 0 0 1 .591 2.238 4.33 4.33 0 0 1-.609 2.229l-5.558 9.541-5.092-2.966 4.794-8.23q.374-.642.217-1.32-.116-.687-.682-1.017t-1.247-.106q-.64.213-1.015.855l-4.793 8.231-5.093-2.967 7.655-13.142 3.832 2.232-.594 2.203q2.673-1.336 5.245.161zm12.032 7.352 3.086 1.798-2.127 3.652-3.087-1.798-2.831 4.861q-.599 1.029-.438 1.639.202.6.87.99.309.18.843.387.574.197.932.233l-1.678 2.88q-.741-.087-1.886-.547-1.144-.46-1.89-.894-2.264-1.319-3.018-2.861-.73-1.527.424-3.507l3.58-6.147-1.44-.839 2.127-3.652 1.646.959 4.216-3.159 3.112 1.813z" fill="#F8F24B"/><rect x="1256.06" y="157.555" width="101" height="47" rx="23.5" transform="rotate(6.722 1256.06 157.555)" fill="#1D1D1D"/><rect x="1256.06" y="157.555" width="101" height="47" rx="23.5" transform="rotate(6.722 1256.06 157.555)" stroke="#F8F24B"/><path d="M1297.29 175.588q1.68.198 3 1.193a6 6 0 0 1 2.01 2.544 6 6 0 0 1 .46 3.202l-.07.65a6.2 6.2 0 0 1-1.2 3.036c-.66.88-1.51 1.54-2.54 1.978-1.01.44-2.08.594-3.2.462l-4.58-.54-.85 7.212-6.21-.732 2.39-20.277zm-5.59 8.002 2.72.321c.55.065 1.01-.062 1.36-.379.36-.337.57-.733.62-1.186l.04-.355q.09-.68-.33-1.267-.375-.615-1.23-.715l-2.72-.321zm25.23-5.687q1.455.17 2.64.971a5.27 5.27 0 0 1 1.89 2.02c.45.812.61 1.71.5 2.696a5 5 0 0 1-.75 2.039 5.4 5.4 0 0 1-1.51 1.62q-.915.641-1.95.701l-.01.148c1.04.462 1.78 1.188 2.2 2.177.44.972.59 2.108.44 3.408-.11.926-.12 1.735-.02 2.426.1.671.47 1.134 1.09 1.388l-.14 1.211c-.95.268-2.15.316-3.61.144q-2.1-.248-3.03-1.226-.93-1.01-.69-3.078c.15-1.301.11-2.365-.13-3.193-.22-.845-.88-1.332-1.99-1.463l-1.71-.202-.93 7.863-6.06-.714 2.39-20.278zm-6.25 7.265 3.13.369c.42.049.78-.048 1.09-.292q.495-.39.57-1.012l.03-.295c.05-.414-.06-.776-.32-1.087a1.36 1.36 0 0 0-.98-.565l-3.14-.37z" fill="#F8F24B"/><rect x="949.643" y="196.064" width="251" height="47" rx="23.5" transform="rotate(-20.383 949.643 196.064)" fill="#1D1D1D"/><rect x="949.643" y="196.064" width="251" height="47" rx="23.5" transform="rotate(-20.383 949.643 196.064)" stroke="#F8F24B"/><path d="m1002.51 212.158-6.971 2.591-12.831-17.014 6.082-2.26 7.765 10.642.111-.042-1.096-13.119 5.64-2.094zm6.61-20.776-5.49 2.042-1.49-3.99 5.5-2.042zm5.98 16.098-5.49 2.042-5.29-14.229 5.5-2.042zm12.36-4.591-1.11-1.459c-.55 1.663-1.51 2.751-2.89 3.262q-1.725.642-3.42.352c-1.11-.201-2.14-.74-3.08-1.619-.93-.904-1.69-2.146-2.27-3.727l-.12-.307q-.885-2.371-.78-4.249c.07-1.277.41-2.334 1.01-3.17q.93-1.266 2.46-1.836c1.75-.649 3.19-.52 4.34.39l-2.72-7.31 5.52-2.053 7.47 20.088zm-6.95-9.991c-.48.18-.82.527-1.01 1.042-.2.496-.2 1.014.01 1.554l1.5 4.045q.3.81 1.02 1.209c.47.247.95.281 1.43.102q.735-.27 1.02-1.015a2.2 2.2 0 0 0-.01-1.581l-1.51-4.046c-.2-.539-.53-.933-1.01-1.18q-.72-.4-1.44-.13m16.41-10.066q2.145-.798 3.99-.531 1.86.228 3.21 1.379 1.38 1.14 2.07 3.009l.65 1.73-9.29 3.452.49 1.339c.24.632.61 1.043 1.13 1.233.53.183 1.12.156 1.75-.078q.975-.363 1.26-1.136.3-.81-.09-1.871l5.1-1.897c.4 1.06.47 2.122.23 3.185-.22 1.056-.77 2.032-1.64 2.928-.86.871-2.01 1.572-3.44 2.104l-.42.156q-2.235.829-4.32.683c-1.38-.122-2.6-.576-3.68-1.362q-1.59-1.218-2.4-3.394l-.32-.865c-.54-1.45-.69-2.814-.44-4.091.25-1.302.86-2.437 1.81-3.405.95-.986 2.16-1.756 3.65-2.309zm.78 3.552c-.54.201-.92.565-1.15 1.094-.23.51-.25 1.035-.05 1.575l.14.39 3.85-1.43-.14-.391c-.2-.539-.56-.926-1.07-1.16a1.93 1.93 0 0 0-1.58-.078m15.92-9.757q2.085-.777 4.11-.479c1.35.174 2.55.683 3.58 1.527 1.05.836 1.83 1.943 2.35 3.32l.21.585c.52 1.395.66 2.753.41 4.074a7.05 7.05 0 0 1-1.72 3.496c-.9 1.01-2.04 1.774-3.44 2.292l-.89.332c-1.39.518-2.77.69-4.13.517a7.4 7.4 0 0 1-3.59-1.554c-1.03-.844-1.8-1.954-2.32-3.331l-.21-.586q-.78-2.064-.42-4.035a7.23 7.23 0 0 1 1.71-3.496c.91-1.035 2.06-1.812 3.46-2.33zm.81 3.542c-.54.2-.93.565-1.15 1.094-.24.51-.25 1.035-.05 1.574l1.54 4.157q.3.81 1.08 1.188c.51.234 1.03.25 1.57.05s.93-.556 1.16-1.066a2.07 2.07 0 0 0 .04-1.602l-1.54-4.157c-.2-.54-.56-.926-1.07-1.16a1.92 1.92 0 0 0-1.58-.078m28.01-14.473-8.06 2.996 1.03 2.79 7.76-2.882 1.59 4.269-7.76 2.882 1.15 3.096 8.06-2.995 2.26 4.368-14.37 5.339-7.11-19.14 14.37-5.338zm17.77 10.164-1.12-1.46q-.81 2.495-2.88 3.263c-1.15.428-2.3.545-3.43.351-1.11-.2-2.13-.74-3.07-1.618q-1.395-1.356-2.28-3.728l-.11-.306c-.59-1.581-.85-2.998-.79-4.249q.12-1.916 1.02-3.171.915-1.265 2.46-1.835c1.75-.65 3.19-.52 4.33.389l-2.71-7.31 5.52-2.052 7.47 20.088zm-6.95-9.991c-.49.179-.82.527-1.01 1.042q-.3.744 0 1.553l1.51 4.046q.3.809 1.02 1.208c.47.248.95.282 1.43.102q.72-.27 1.02-1.014c.19-.515.19-1.042-.02-1.582l-1.5-4.045c-.2-.539-.54-.933-1.01-1.181q-.72-.399-1.44-.129m13.65-10.82-5.5 2.042-1.48-3.989 5.5-2.043zm5.98 16.098-5.5 2.042-5.28-14.228 5.49-2.043zm3.82-17.645 3.35-1.244 1.47 3.962-3.35 1.244 1.96 5.273q.42 1.116.99 1.379.6.225 1.32-.045c.22-.083.5-.218.83-.405.35-.213.6-.403.77-.572l1.17 3.124q-.54.518-1.62 1.11-1.095.593-1.89.893c-1.64.608-3.02.781-4.13.517-1.1-.27-1.91-1.121-2.44-2.554l-2.48-6.668-1.56.581-1.47-3.962 1.78-.663.24-5.263 3.37-1.255zm10.17-5.873-5.5 2.042-1.48-3.99 5.5-2.042zm5.98 16.098-5.5 2.042-5.28-14.229 5.49-2.042zm7.21-19.22a4.3 4.3 0 0 1 2.3-.22q1.185.195 2.1.965c.61.494 1.05 1.122 1.34 1.885l3.84 10.351-5.52 2.052-3.32-8.928c-.17-.465-.46-.8-.88-1.006-.4-.231-.81-.27-1.22-.118q-.615.227-.87.896c-.16.42-.16.862.01 1.327l3.32 8.928-5.52 2.053-5.3-14.257 4.16-1.545 1.32 1.857c.45-1.942 1.6-3.259 3.46-3.95zm21.07-10.432c.4 1.079.44 2.003.14 2.773-.29.763-.89 1.475-1.81 2.134.64.204 1.2.518 1.65.942q.705.625 1.02 1.462.45 1.228.09 2.54c-.25.875-.73 1.676-1.43 2.403-.71.709-1.57 1.249-2.57 1.623l-1.93.715c-.54.2-.91.433-1.1.697q-.315.368-.18.731c.11.279.3.451.58.517s.72-.015 1.34-.243l4.54-1.69c1.49-.553 2.76-.568 3.8-.044q1.545.757 2.28 2.738.465 1.256.09 2.634-.33 1.395-1.38 2.514a6.3 6.3 0 0 1-2.51 1.696l-7.4 2.747q-1.365.508-2.73-.095-1.335-.614-1.86-2.009l-.05-.14a3.08 3.08 0 0 1-.05-2.013c.2-.71.55-1.315 1.04-1.815-.51-.127-.97-.36-1.37-.698q-.6-.507-.87-1.232-.39-1.032.03-2.139c.29-.745.77-1.345 1.43-1.8q-1.215-.28-2.13-.926a3.53 3.53 0 0 1-1.27-1.624q-.735-1.981.45-3.848c.78-1.245 2.22-2.254 4.3-3.028l.78-.29c.67-.249 1.31-.421 1.91-.517.53-.728.87-1.361 1.01-1.899q.195-.835.03-1.282zm-6.34 8.07c-.48.179-.83.508-1.03.986-.19.452-.2.92-.02 1.404s.49.843.94 1.079c.46.21.93.226 1.42.046.48-.18.82-.496 1.01-.948.2-.478.21-.959.04-1.442a1.78 1.78 0 0 0-.96-1.041 1.65 1.65 0 0 0-1.4-.084m2.24 12.599c-.39.146-.69.382-.88.708q-.27.48-.09.955.165.474.69.664.555.207 1.14-.011l3.99-1.482c.39-.145.67-.378.85-.698.2-.327.23-.648.12-.964-.12-.317-.36-.544-.73-.682-.35-.126-.71-.117-1.1.028z" fill="#F8F24B"/><path d="M149.011 181.235c-64.489-7.804-130.835 13.062-146.912 36.403L0 463h167.69c364.424 0 728.812-1.443 1093.24-1.443 193.16 0 387.95 2.693 580.93-1.283 32.58-.672 101.29.498 129.91-9.141 19.23-6.477 14.89-24.927 15.74-32.875 4.48-41.836-.49-81.997-23.92-123.002-27.95-48.902-69.67-96.896-89.83-146.415-2.38-5.854-9.03-8.635-13.85-13.792-13.06-13.974-2.9-29.587-38.41-30.872-5-13.666 5-3.905-64 21.865-18.74 8.41-62.25 35.261-81.5 44.121-29 13.345-70.38 20.342-109.92 34.004-41.18 14.232-96.68 21.865-152.37 18.443-48.39-2.975-84.16-15.718-122.14-26.14-64.06-17.578-141.5-28.586-211.14-8.58-56.61 16.265-93.086 43.196-164.328 51.237-64.511 7.282-105.231-7.063-138.517-26.861-35.788-21.287-49.263-48.844-92.555-68.076-16.857-7.489-36.894-12.66-60.444-6.736-72.903 18.343-74.095 64.656-160.763 75.694-50.438 6.423-113.579 3.532-162.443-3.689-52.83-7.807-97.825-21.624-152.369-28.224" fill="#F8F24B"/></svg>