<svg width="1800" height="262" viewBox="0 0 1800 262" fill="none" xmlns="http://www.w3.org/2000/svg"><path d="M149.011 83.235C84.522 75.43 18.176 96.297 2.099 119.638L0 365h167.69c364.424 0 728.812-1.443 1093.24-1.443 193.16 0 387.95 2.693 580.93-1.283 32.58-.672 101.29.498 129.91-9.141 19.23-6.477 14.89-24.927 15.74-32.875 4.48-41.836-.49-81.997-23.92-123.002-27.95-48.902-69.67-96.896-89.83-146.415-2.38-5.854-9.03-8.635-13.85-13.792-13.06-13.973-2.9-29.587-38.41-30.872-5-13.666 5-3.905-64 21.865-18.74 8.41-62.25 35.261-81.5 44.12-29 13.346-70.38 20.343-109.92 34.005-41.18 14.232-96.68 21.865-152.37 18.443-48.39-2.975-84.16-15.718-122.14-26.14-64.06-17.578-141.5-28.586-211.14-8.58-56.61 16.265-93.086 43.196-164.328 51.237-64.511 7.282-105.231-7.063-138.517-26.861-35.788-21.287-49.263-48.844-92.555-68.076-16.857-7.489-36.894-12.66-60.444-6.735-72.903 18.342-74.095 64.655-160.763 75.693-50.438 6.423-113.579 3.532-162.443-3.689-52.83-7.807-97.825-21.624-152.369-28.224" fill="#F8F24B"/></svg>