<svg width="968" height="854" viewBox="0 0 968 854" fill="none" xmlns="http://www.w3.org/2000/svg">
<path d="M106.809 174.624C48.6956 205.058 53.6435 283.432 53.6435 339.595C53.6435 404.094 16.0107 462.389 5.98781 524.517C-2.63217 577.949 3.62691 634.614 16.1146 686.808C30.6471 747.548 59.0234 803.344 114.702 836.443C183.07 877.085 287.725 829.006 349.109 795.796C384.835 776.468 418.307 751.21 458.122 740.558C491.385 731.658 526.37 737.514 559.092 745.918C620.299 761.637 673.458 793.693 731.844 816.343C784.249 836.673 839.075 841.191 886.725 806.665C926.814 777.619 965.651 728.06 965.953 676.386C966.177 638.066 953.889 594.281 934.381 561.442C911.806 523.441 869.937 503.381 839.07 473.299C808.713 443.714 795.557 409.651 797.967 367.289C801.536 304.522 839.243 250.426 840.857 188.322C842.038 142.864 832.564 97.6881 806.008 59.9784C776.015 17.3862 737.692 0.867815 686.422 2.05986C628.267 3.41201 572.398 19.7664 521.265 47.1737C478.297 70.2051 442.171 104.488 399.148 126.979C327.301 164.538 242.049 160.43 163.401 162.862C143.346 163.482 124.829 165.188 106.809 174.624Z" fill="#F8F24B" stroke="#F8F24B" stroke-width="2.8022" stroke-linecap="round"/>
</svg>