<svg width="560" height="447" viewBox="0 0 560 447" fill="none" xmlns="http://www.w3.org/2000/svg"><rect x="50" y="33.515" width="156" height="48" rx="24" transform="rotate(-12.406 50 33.515)" fill="#F8F24B"/><path d="M104.646 49.664q.442 2.005-.214 3.735-.633 1.693-2.227 2.897-1.595 1.205-3.95 1.722l-1.249.275q-2.355.518-4.307.094t-3.266-1.689q-1.293-1.3-1.734-3.306l-2.992-13.604 6.133-1.35 2.974 13.517q.21.96 1.014 1.423.831.457 1.82.24.988-.218 1.523-.975.563-.764.352-1.724l-2.974-13.516 6.105-1.343zm14.385-7.553 8.564 9.148-7.092 1.56-4.734-5.45-.116.026-1.981 6.927-6.57 1.445 3.929-11.926-7.676-8.155 7.064-1.554 3.88 4.48.117-.026 1.642-5.695 6.54-1.438zm22.253-14.769-8.735 28.039-3.837.844 8.764-28.045zm21.897 9.446q.442 2.006-.215 3.734-.633 1.694-2.227 2.898t-3.949 1.722l-1.25.275q-2.354.517-4.306.094-1.953-.424-3.267-1.69-1.292-1.3-1.733-3.305l-2.993-13.604 6.134-1.35 2.973 13.517q.212.96 1.014 1.423.833.456 1.82.24.989-.218 1.523-.975.564-.765.352-1.724l-2.973-13.517 6.104-1.342zm11.363-12.282-2.354.517 2.5 11.366 2.354-.518.947 4.302-10.872 2.392-.946-4.302 2.354-.518-2.5-11.366-2.354.518-.94-4.273 10.871-2.392z" fill="#1D1D1D"/><rect y="194.109" width="196" height="48" rx="24" transform="rotate(-12.406 0 194.109)" fill="#F8F24B"/><path d="M45.782 197.945a5.4 5.4 0 0 1 2.763.093 4.96 4.96 0 0 1 2.309 1.352 4.6 4.6 0 0 1 1.235 2.288q.447 2.034-.217 3.308t-2.103 2.078l.026.116q4 .035 4.9 4.133a5.1 5.1 0 0 1-.167 2.841 5.5 5.5 0 0 1-1.577 2.389q-1.096.972-2.608 1.305l-11.104 2.443-4.387-19.941zm-3.638 8.815 3.343-.735q.61-.134.928-.631a1.46 1.46 0 0 0 .206-1.142l-.109-.494a1.37 1.37 0 0 0-.66-.922 1.37 1.37 0 0 0-1.113-.212l-3.343.735zm1.688 7.675 3.692-.813a1.4 1.4 0 0 0 .928-.63q.34-.532.206-1.143l-.115-.523a1.36 1.36 0 0 0-.66-.921 1.37 1.37 0 0 0-1.114-.213l-3.691.812zm19.814-15.391q1.918-.421 3.202.423 1.305.81 1.715 2.671l.108.494.185 1.117.102.74-4.71 1.036-.153-.698q-.135-.61-.601-.934-.445-.36-.94-.251-.523.115-.805.634-.258.484-.125 1.094l2.098 9.535-5.61 1.234-3.268-14.854 4.302-.946 1.113 2.01q.098-.387.464-1.077t1.107-1.341q.74-.65 1.816-.887m13.455-2.96q3.372-.741 5.433.177 2.09.911 2.55 3.004l1.35 6.134q.12.552.44.756a.9.9 0 0 0 .697.121q.552-.121.96-.486l.684 3.111q-.783.873-2.789 1.314-1.86.41-3.07.036-1.217-.403-1.721-1.45a8 8 0 0 1-1.687 2.169q-.963.882-2.591 1.24-2.325.512-3.978-.07-1.65-.581-2.233-3.226-.441-2.006.456-3.331.89-1.354 2.894-2.221 2.025-.903 5.282-1.619l-.186-.843q-.18-.814-.833-1.158-.626-.35-1.44-.171a2.3 2.3 0 0 0-1.19.689q-.498.505-.37 1.087l.026.116-5.523 1.215q-.048-.08-.119-.401-.274-1.25.35-2.423.65-1.209 2.091-2.136 1.464-.963 3.557-1.423zm3.259 8.304q-1.919.422-2.705 1.144-.792.691-.594 1.593.306 1.395 2.05 1.012.815-.18 1.275-.86.453-.708.255-1.61zm17.496-12.869a4.3 4.3 0 0 1 2.308.101 4.33 4.33 0 0 1 1.951 1.247 4.33 4.33 0 0 1 1.061 2.053l2.372 10.784-5.756 1.266-2.046-9.302q-.159-.726-.733-1.118-.552-.428-1.191-.287-.639.14-.99.766-.327.591-.167 1.317l2.046 9.302-5.755 1.266-3.268-14.854 4.331-.953 1.055 2.023q1.062-2.793 3.968-3.432zm20.471 11.374-.9-1.6q-1.158 2.357-3.309 2.831-1.802.396-3.441-.127-1.61-.53-2.823-2.03-1.192-1.536-1.735-4.007l-.07-.32q-.544-2.47-.188-4.317.378-1.881 1.443-2.999 1.093-1.124 2.692-1.476 2.733-.602 4.24.987l-1.675-7.616 5.755-1.266 4.604 20.93zm-5.497-10.859q-.756.166-1.144.892-.396.696-.21 1.539l.927 4.215q.184.843.843 1.338.651.466 1.407.301.755-.167 1.151-.863a2.2 2.2 0 0 0 .203-1.569l-.927-4.215q-.185-.843-.836-1.309-.658-.495-1.414-.329m15.022-8.82-5.726 1.259-.915-4.157 5.727-1.259zm3.69 16.772-5.727 1.26-3.261-14.825 5.726-1.26zm9.803-18.034a4.3 4.3 0 0 1 2.308.102 4.3 4.3 0 0 1 1.951 1.247 4.3 4.3 0 0 1 1.061 2.052l2.372 10.784-5.755 1.267-2.047-9.302q-.16-.727-.733-1.119-.552-.427-1.191-.287-.64.141-.989.767-.328.59-.168 1.316l2.046 9.302-5.755 1.266-3.268-14.854 4.331-.952 1.055 2.023q1.062-2.793 3.969-3.433zm22.313-7.407q.372 1.686-.245 2.766-.586 1.074-2.089 1.861.919.439 1.505 1.162.615.718.807 1.591.282 1.279-.267 2.527t-1.745 2.182q-1.202.904-2.772 1.249l-2.006.442q-.843.185-1.192.536-.356.322-.273.7a.77.77 0 0 0 .496.592q.4.155 1.359-.055l4.738-1.042q2.326-.513 3.764.482 1.43.965 1.885 3.029.287 1.308-.277 2.621-.53 1.335-1.719 2.298a6.3 6.3 0 0 1-2.724 1.331l-7.704 1.694q-1.423.313-2.694-.474-1.242-.794-1.561-2.247l-.032-.145a3.08 3.08 0 0 1 .23-2.001 4.2 4.2 0 0 1 1.282-1.653 3.35 3.35 0 0 1-1.26-.881 2.9 2.9 0 0 1-.691-1.341q-.237-1.076.327-2.114a3.9 3.9 0 0 1 1.663-1.585q-1.165-.445-1.974-1.212t-1.032-1.784q-.454-2.064.973-3.749t4.683-2.402l.814-.179q1.047-.23 1.957-.247.945-.97 1.263-1.741.311-.8.209-1.265zm-7.395 7.112q-.756.166-1.157.834a1.83 1.83 0 0 0-.213 1.387q.166.756.782 1.2.638.407 1.394.242.756-.166 1.135-.799a1.88 1.88 0 0 0 .235-1.423 1.78 1.78 0 0 0-.804-1.164 1.65 1.65 0 0 0-1.372-.277m.467 12.788q-.61.135-.97.579-.33.439-.222.933.109.493.593.753.519.282 1.129.148l4.157-.914q.61-.135.941-.573.359-.446.251-.939-.11-.494-.628-.776-.485-.26-1.094-.125z" fill="#1D1D1D"/><rect x="165" y="83.138" width="386" height="48" rx="24" transform="rotate(-5.223 165 83.138)" fill="#F8F24B"/><path d="m227.034 111.609-6.224.569-1.192-13.041-.119.01-2.365 13.367-7.143.653-4.719-12.719-.148.014 1.192 13.041-5.661.518-1.859-20.333 10.196-.932 3.926 10.58.119-.011 1.883-11.111 10.256-.938zm9.523-16.441q3.438-.315 5.368.854 1.96 1.165 2.155 3.3l.572 6.254q.051.563.342.805t.677.207a2.1 2.1 0 0 0 1.013-.361l.29 3.171q-.886.768-2.932.956-1.896.173-3.05-.349-1.157-.552-1.526-1.654a8 8 0 0 1-1.945 1.941q-1.067.756-2.726.907-2.372.217-3.938-.567t-1.812-3.48q-.187-2.046.869-3.248 1.053-1.231 3.149-1.842 2.123-.642 5.442-.946l-.078-.859q-.076-.83-.682-1.253-.577-.426-1.407-.35-.682.063-1.267.535-.557.44-.503 1.032l.011.119-5.632.514q-.037-.086-.067-.412-.117-1.275.651-2.36.794-1.12 2.34-1.859 1.573-.771 3.708-.966zm2.195 8.646q-1.956.178-2.826.796-.873.588-.789 1.507.13 1.422 1.908 1.26a2 2 0 0 0 1.372-.693q.538-.648.454-1.566zm17.575-10.454q1.957-.179 3.124.82 1.194.968 1.368 2.864l.046.504.043 1.132.009.746-4.802.44-.065-.712q-.057-.623-.48-1.002-.396-.413-.9-.366-.534.048-.878.528-.318.448-.261 1.07l.888 9.722-5.72.523-1.385-15.146 4.387-.401.853 2.134q.145-.372.595-1.011t1.266-1.192 1.912-.653m11.283-6.979 1.082 11.826 3.338-5.983 6.699-.613-4.68 7.332 6.153 7.806-6.906.632-3.061-4.054-.983 1.016.309 3.379-5.868.536-1.951-21.34zm20.681 4.057q2.283-.209 3.994.532 1.738.708 2.739 2.17 1.03 1.46 1.211 3.446l.168 1.838-9.87.902.13 1.423q.092 1.008.764 1.484.7.475 1.708.382 1.038-.094 1.514-.766.504-.703.401-1.83l5.424-.496q.155 1.69-.61 3.135-.735 1.442-2.351 2.396-1.59.923-3.872 1.131l-.445.041q-2.37.216-4.346-.469-1.949-.719-3.197-2.279-1.222-1.591-1.433-3.903l-.084-.92q-.211-2.31.644-4.063.884-1.785 2.643-2.812 1.755-1.058 4.127-1.274zm-.176 3.633a1.94 1.94 0 0 0-1.395.755 1.98 1.98 0 0 0-.46 1.507l.038.415 4.09-.374-.038-.415a1.98 1.98 0 0 0-.726-1.398 1.94 1.94 0 0 0-1.509-.49m16.582-4.833 3.557-.326.384 4.21-3.556.325.512 5.601q.108 1.186.593 1.59.512.372 1.283.301.356-.032.911-.173.582-.172.894-.351l.304 3.32q-.656.359-1.854.648-1.198.288-2.058.367-2.609.239-4.118-.58-1.48-.821-1.689-3.103l-.647-7.084-1.66.152-.385-4.21 1.897-.173 1.604-5.018 3.586-.328zm11.349-3.01-5.839.533-.387-4.238 5.839-.534zm1.564 17.102-5.839.534-1.382-15.117 5.839-.534zm11.982-16.667a4.3 4.3 0 0 1 2.277.39 4.3 4.3 0 0 1 1.779 1.48q.685.954.796 2.17l1.005 10.996-5.868.536-.868-9.484q-.067-.741-.588-1.202-.492-.492-1.145-.433-.652.06-1.078.636-.398.545-.33 1.286l.867 9.485-5.869.536-1.385-15.146 4.417-.404.793 2.14q1.403-2.64 4.367-2.91zm23.064-4.56q.156 1.72-.589 2.715-.716.992-2.306 1.585a4.25 4.25 0 0 1 1.348 1.342 3.6 3.6 0 0 1 .602 1.678q.119 1.305-.581 2.474t-2.004 1.947a7.1 7.1 0 0 1-2.907.893l-2.045.187q-.86.078-1.25.383-.394.276-.358.66a.77.77 0 0 0 .418.65q.377.205 1.355.115l4.831-.442q2.372-.216 3.674.95 1.299 1.136 1.491 3.241.123 1.333-.602 2.565-.692 1.259-1.993 2.065a6.3 6.3 0 0 1-2.869.98l-7.855.718q-1.453.133-2.614-.807-1.132-.943-1.268-2.425l-.013-.148a3.07 3.07 0 0 1 .478-1.956 4.2 4.2 0 0 1 1.479-1.48 3.34 3.34 0 0 1-1.14-1.032 2.9 2.9 0 0 1-.518-1.417q-.1-1.097.589-2.056a3.9 3.9 0 0 1 1.847-1.365q-1.1-.587-1.806-1.449-.706-.861-.801-1.899-.192-2.104 1.435-3.598 1.626-1.494 4.946-1.797l.83-.076a10 10 0 0 1 1.972-.001q1.059-.844 1.471-1.57.41-.754.366-1.228zm-8.227 6.133a1.74 1.74 0 0 0-1.253.682 1.84 1.84 0 0 0-.384 1.35q.07.77.626 1.288a1.78 1.78 0 0 0 1.352.414q.771-.07 1.226-.65a1.88 1.88 0 0 0 .412-1.382 1.78 1.78 0 0 0-.653-1.256 1.64 1.64 0 0 0-1.326-.446m-1.136 12.746q-.622.057-1.035.453-.383.394-.336.898t.494.821q.479.345 1.102.288l4.238-.387q.623-.057 1.005-.451.413-.396.366-.9t-.526-.849q-.447-.317-1.07-.26zm25.775-23.158q2.46-.224 4.476.577 2.043.77 3.348 2.623 1.302 1.823 1.56 4.64l-5.839.533-.095-1.037q-.124-1.364-1.057-2.085-.903-.725-2.178-.608l-.148.013q-1.245.114-2.026 1.052t-.667 2.183l.523 5.72q.113 1.245 1.052 2.027.938.78 2.183.667l.415-.038q1.274-.117 2.034-.963.786-.879.659-2.272l-.09-.978 5.573-.51q.238 2.61-.68 4.665-.888 2.055-2.69 3.265t-4.203 1.43l-.83.076q-2.639.24-4.899-.628a8.24 8.24 0 0 1-3.661-2.774q-1.43-1.9-1.678-4.628l-.288-3.142q-.235-2.58.825-4.708a8.87 8.87 0 0 1 3.089-3.48q2.002-1.32 4.462-1.544zm19.017 3.492q3.438-.315 5.369.854 1.959 1.166 2.154 3.3l.572 6.254q.05.564.343.806a.9.9 0 0 0 .676.207 2.1 2.1 0 0 0 1.013-.362l.29 3.172q-.887.768-2.931.955-1.897.174-3.051-.349-1.156-.552-1.526-1.653a8 8 0 0 1-1.945 1.94q-1.067.756-2.726.907-2.371.217-3.937-.566-1.566-.784-1.813-3.48-.187-2.046.869-3.248 1.053-1.233 3.149-1.842 2.123-.643 5.443-.946l-.079-.86q-.075-.83-.682-1.252-.577-.426-1.407-.35-.681.063-1.266.534-.558.44-.504 1.032l.011.12-5.631.514q-.038-.087-.068-.412-.116-1.275.651-2.361.795-1.119 2.341-1.858 1.574-.772 3.707-.967zm2.195 8.646q-1.956.18-2.826.796-.873.588-.789 1.507.13 1.423 1.909 1.26a2 2 0 0 0 1.371-.693q.539-.647.455-1.566zm27.031-11.318a4.3 4.3 0 0 1 2.277.39 4.3 4.3 0 0 1 1.779 1.481q.685.954.796 2.169l1.006 10.996-5.751.526-.877-9.603q-.065-.711-.521-1.118a1.24 1.24 0 0 0-1.051-.382 1.33 1.33 0 0 0-.994.569q-.345.48-.28 1.19l.878 9.604-5.75.526-.878-9.604q-.065-.71-.521-1.118a1.24 1.24 0 0 0-1.051-.382 1.33 1.33 0 0 0-.994.57q-.345.48-.279 1.19l.877 9.604-5.75.526-1.384-15.147 4.386-.4.823 2.136q1.7-2.666 3.863-2.864l.8-.073q1.245-.114 2.34.414a4.27 4.27 0 0 1 1.755 1.543q.524-1.124 1.475-1.838a4.37 4.37 0 0 1 2.226-.831zm16.364-1.495q1.837-.168 3.369.558 1.56.725 2.55 2.397 1.017 1.64 1.247 4.16l.03.326q.23 2.52-.381 4.339-.584 1.786-1.809 2.766-1.196.975-2.826 1.125-2.787.254-4.083-1.51l.634 6.936-5.869.536-1.875-20.51 4.683-.429.693 1.7q1.384-2.188 3.637-2.394m-1.006 3.708q-.77.07-1.247.742-.48.641-.401 1.5l.393 4.298q.078.86.669 1.434.588.543 1.358.473t1.25-.712q.477-.67.398-1.53l-.393-4.298q-.078-.86-.666-1.404-.59-.573-1.361-.503m17.533-5.22q3.438-.314 5.368.855 1.96 1.165 2.155 3.3l.571 6.254q.052.563.343.805a.9.9 0 0 0 .676.208 2.1 2.1 0 0 0 1.014-.362l.289 3.172q-.885.768-2.931.955-1.897.174-3.05-.349-1.157-.552-1.526-1.654a8 8 0 0 1-1.945 1.942q-1.067.755-2.727.906-2.37.217-3.937-.566-1.566-.785-1.812-3.48-.187-2.046.868-3.248 1.053-1.233 3.15-1.843 2.123-.642 5.442-.945l-.078-.86q-.076-.83-.683-1.252-.576-.425-1.406-.35-.682.062-1.267.534-.557.44-.503 1.032l.011.119-5.632.515q-.037-.087-.067-.413-.117-1.275.651-2.36.794-1.12 2.34-1.858 1.574-.772 3.708-.967zm2.195 8.647q-1.956.18-2.826.796-.873.588-.789 1.507.13 1.422 1.908 1.26a2 2 0 0 0 1.372-.693q.538-.647.454-1.566zm14.223-11.82-5.84.533-.387-4.238 5.839-.534zm1.563 17.102-5.839.533-1.382-15.116 5.839-.534zm17.302-19.604q.158 1.719-.588 2.714-.717.991-2.306 1.585.856.549 1.348 1.341.52.79.601 1.679.12 1.305-.58 2.474t-2.004 1.946a7.1 7.1 0 0 1-2.907.894l-2.045.187q-.86.078-1.251.383-.393.275-.358.66a.77.77 0 0 0 .418.65q.378.204 1.356.115l4.831-.442q2.371-.217 3.673.95 1.3 1.136 1.492 3.24.122 1.335-.602 2.566-.692 1.26-1.993 2.065a6.3 6.3 0 0 1-2.87.98l-7.854.718q-1.452.133-2.614-.807-1.133-.943-1.268-2.425l-.014-.148a3.1 3.1 0 0 1 .479-1.957 4.2 4.2 0 0 1 1.479-1.48 3.35 3.35 0 0 1-1.141-1.031 2.9 2.9 0 0 1-.518-1.417q-.1-1.097.589-2.057a3.9 3.9 0 0 1 1.848-1.364q-1.1-.587-1.806-1.449-.707-.862-.801-1.9-.192-2.104 1.434-3.597 1.627-1.494 4.947-1.797l.83-.076a10 10 0 0 1 1.972-.001q1.059-.844 1.471-1.57.409-.754.366-1.228zm-8.226 6.132a1.74 1.74 0 0 0-1.253.682 1.84 1.84 0 0 0-.384 1.35q.07.77.625 1.288.583.484 1.353.414.771-.07 1.226-.65.482-.612.412-1.382a1.78 1.78 0 0 0-.653-1.256 1.64 1.64 0 0 0-1.326-.447m-1.136 12.746q-.623.057-1.035.453-.382.394-.336.897.046.505.493.822.48.345 1.103.288l4.238-.388q.623-.056 1.005-.45.412-.396.366-.9t-.526-.849q-.447-.318-1.07-.26zm21.525-17.54a4.3 4.3 0 0 1 2.277.39 4.3 4.3 0 0 1 1.779 1.481q.685.954.796 2.17l1.005 10.996-5.868.536-.867-9.485q-.069-.74-.588-1.201-.494-.493-1.146-.433-.653.06-1.077.636-.399.545-.331 1.286l.867 9.484-5.869.537-1.384-15.146 4.416-.404.793 2.14q1.403-2.64 4.367-2.91zm14.838-1.356a9.6 9.6 0 0 1 2.949.209q1.552.306 2.644 1.133 1.09.827 1.211 2.131.024.267.016.507-.01.21-.005.27l-4.861.443q-.066-.711-.744-.948-.652-.269-1.453-.196-2.193.2-2.115 1.06.05.534.72.682.697.116 2.256.152 2.037.053 3.373.29 1.366.234 2.44 1.181 1.1.915 1.278 2.872.255 2.786-1.674 4.248-1.899 1.458-4.863 1.73l-1.541.14q-1.66.153-3.217-.214-1.531-.397-2.577-1.378t-1.187-2.522l-.024-.266a.9.9 0 0 1 .005-.27l4.801-.439.011.119q.08.859.882 1.145.8.255 1.808.163a7.8 7.8 0 0 0 1.673-.332q.814-.255.763-.817-.052-.564-.753-.708-.702-.175-2.296-.269-1.919-.063-3.287-.327a5.2 5.2 0 0 1-2.439-1.181q-1.044-.951-1.212-2.789-.157-1.719.778-2.94.96-1.254 2.513-1.933a9.8 9.8 0 0 1 3.209-.862z" fill="#1D1D1D"/><rect x="61" y="271.77" width="315" height="48" rx="24" transform="rotate(-5.789 61 271.77)" fill="#F8F24B"/><path d="M104.108 280.753q2.458-.25 4.482.533 2.05.75 3.374 2.589 1.32 1.812 1.605 4.624l-5.833.592-.105-1.037q-.138-1.362-1.078-2.074-.91-.716-2.184-.587l-.148.015q-1.243.127-2.015 1.072-.772.947-.646 2.19l.58 5.715q.126 1.244 1.072 2.015.945.772 2.189.646l.415-.042q1.273-.13 2.024-.983.778-.887.637-2.279l-.099-.977 5.567-.564q.264 2.606-.634 4.671-.867 2.062-2.658 3.291t-4.188 1.472l-.829.084q-2.635.267-4.906-.58a8.25 8.25 0 0 1-3.687-2.737q-1.448-1.888-1.725-4.612L95 290.651q-.26-2.576.779-4.716a8.9 8.9 0 0 1 3.054-3.511q1.989-1.338 4.446-1.587zm19.377 3.271q2.221-.226 4.097.572a6.94 6.94 0 0 1 3.083 2.38q1.21 1.613 1.433 3.803l.063.622q.225 2.221-.637 4.044a6.95 6.95 0 0 1-2.543 2.95q-1.681 1.128-3.902 1.353l-.947.096q-2.221.225-4.124-.54a7.4 7.4 0 0 1-3.086-2.409q-1.18-1.615-1.403-3.807l-.063-.622q-.222-2.19.61-4.01a7.2 7.2 0 0 1 2.543-2.951q1.708-1.16 3.929-1.385zm-.11 3.631a1.93 1.93 0 0 0-1.388.769 1.98 1.98 0 0 0-.445 1.511l.447 4.412q.087.858.742 1.421.653.531 1.511.445a1.98 1.98 0 0 0 1.391-.74q.53-.681.442-1.54l-.447-4.412a1.98 1.98 0 0 0-.739-1.391 1.94 1.94 0 0 0-1.514-.475m20.639-5.712a4.3 4.3 0 0 1 2.281.367 4.3 4.3 0 0 1 1.793 1.463q.695.948.818 2.161l1.113 10.986-5.863.595-.96-9.476q-.075-.74-.6-1.196-.498-.488-1.15-.422t-1.071.647q-.393.55-.318 1.289l.96 9.476-5.863.594-1.534-15.131 4.413-.448.814 2.132q1.376-2.653 4.338-2.953zm14.055-1.126 3.553-.36.427 4.205-3.554.36.567 5.597q.121 1.184.61 1.583.516.367 1.285.289.356-.036.909-.182.58-.178.891-.36l.337 3.317q-.651.364-1.848.666-1.196.3-2.054.387-2.606.265-4.124-.539-1.487-.806-1.719-3.086l-.717-7.078-1.658.168-.427-4.204 1.896-.193 1.554-5.033 3.583-.364zm13.797-1.698q2.28-.231 3.999.492 1.745.691 2.76 2.144 1.044 1.45 1.245 3.434l.187 1.835-9.861 1 .144 1.421q.102 1.008.778 1.477.705.467 1.712.365 1.036-.105 1.507-.781.496-.708.382-1.834l5.419-.549q.171 1.688-.579 3.14-.72 1.45-2.328 2.42-1.58.938-3.86 1.169l-.444.045q-2.369.24-4.351-.426-1.956-.699-3.22-2.247-1.237-1.58-1.471-3.889l-.093-.918q-.234-2.31.605-4.07.865-1.793 2.614-2.838 1.745-1.074 4.115-1.315zm-.14 3.634a1.94 1.94 0 0 0-1.388.769 1.98 1.98 0 0 0-.445 1.511l.042.415 4.086-.414-.042-.415a1.98 1.98 0 0 0-.739-1.391 1.94 1.94 0 0 0-1.514-.475m20.204-5.668q1.215-.123 2.281.367a4.33 4.33 0 0 1 1.794 1.464q.694.946.817 2.161l1.114 10.986-5.863.594-.961-9.476q-.075-.74-.599-1.195-.5-.489-1.15-.422-.651.065-1.071.647-.393.548-.318 1.289l.96 9.475-5.863.595-1.534-15.132 4.412-.447.815 2.131q1.376-2.652 4.337-2.953zm14.056-1.125 3.553-.361.426 4.205-3.553.361.567 5.596q.12 1.185.609 1.584.516.366 1.286.288.355-.036.909-.182.58-.178.891-.359l.336 3.316q-.65.366-1.847.666-1.195.301-2.055.388-2.605.264-4.123-.539-1.488-.807-1.719-3.087l-.717-7.077-1.659.168-.426-4.205 1.895-.192 1.554-5.034 3.583-.363zm20.271-7.59q2.457-.249 4.482.533 2.05.75 3.373 2.59 1.321 1.81 1.606 4.624l-5.834.591-.105-1.036q-.138-1.362-1.078-2.075-.91-.715-2.183-.586l-.148.015q-1.244.126-2.015 1.072-.772.945-.646 2.189l.579 5.715q.126 1.244 1.072 2.015t2.19.646l.414-.042q1.273-.13 2.025-.983.777-.886.636-2.278l-.099-.978 5.567-.564q.264 2.606-.633 4.671-.869 2.062-2.658 3.291-1.79 1.229-4.189 1.472l-.829.084q-2.636.267-4.905-.58a8.24 8.24 0 0 1-3.688-2.737q-1.448-1.887-1.724-4.612l-.318-3.139q-.261-2.575.778-4.716a8.86 8.86 0 0 1 3.055-3.51q1.987-1.339 4.446-1.588zm20.324 3.175q1.954-.198 3.132.79 1.203.954 1.395 2.85l.052.503.054 1.131.016.747-4.797.486-.072-.711q-.063-.622-.49-.997-.4-.408-.904-.357-.532.054-.873.537-.313.45-.25 1.072l.985 9.713-5.715.579-1.534-15.131 4.382-.444.874 2.125q.141-.374.585-1.017.442-.643 1.254-1.204.81-.561 1.906-.672m14.091-1.428q2.28-.231 3.999.492 1.746.69 2.76 2.143 1.045 1.45 1.246 3.434l.186 1.836-9.861.999.144 1.422q.103 1.006.778 1.477.706.467 1.712.365 1.037-.106 1.507-.781.496-.71.382-1.834l5.419-.549q.171 1.687-.579 3.14-.72 1.449-2.327 2.419-1.581.938-3.861 1.17l-.444.045q-2.368.24-4.351-.427-1.956-.7-3.219-2.246-1.237-1.58-1.472-3.89l-.093-.918q-.234-2.31.605-4.07.865-1.792 2.614-2.838 1.746-1.074 4.115-1.314zm-.14 3.634a1.94 1.94 0 0 0-1.388.769 1.98 1.98 0 0 0-.445 1.511l.042.414 4.086-.414-.042-.415a1.98 1.98 0 0 0-.739-1.39 1.93 1.93 0 0 0-1.514-.475m17.54-5.398q3.435-.348 5.376.801 1.971 1.146 2.187 3.279l.634 6.248q.057.562.35.802a.9.9 0 0 0 .679.2 2.1 2.1 0 0 0 1.009-.371l.321 3.168q-.877.777-2.922.984-1.895.192-3.053-.318-1.162-.541-1.543-1.639a8 8 0 0 1-1.925 1.96q-1.06.766-2.717.934-2.37.24-3.943-.528-1.574-.768-1.847-3.462-.207-2.044.837-3.256 1.04-1.242 3.131-1.873 2.117-.664 5.433-1l-.087-.859q-.084-.829-.695-1.245-.58-.42-1.41-.336a2.33 2.33 0 0 0-1.261.546q-.553.446-.493 1.038l.012.118-5.626.571q-.039-.087-.072-.412-.13-1.274.628-2.367.783-1.126 2.322-1.881 1.566-.787 3.697-1.003zm2.28 8.624q-1.954.198-2.818.824-.867.596-.774 1.514.144 1.422 1.921 1.242a2 2 0 0 0 1.364-.707q.532-.652.439-1.57zm15.192-10.096 3.553-.36.426 4.204-3.553.361.567 5.596q.12 1.185.61 1.584.515.366 1.285.288.356-.036.909-.181.58-.178.891-.36l.336 3.316q-.65.366-1.847.666-1.196.301-2.054.388-2.607.264-4.124-.539-1.488-.807-1.719-3.087l-.717-7.077-1.658.168-.427-4.205 1.895-.192 1.554-5.034 3.583-.363zm11.319-3.122-5.834.591-.429-4.234 5.834-.592zm1.732 17.086-5.833.591-1.531-15.102 5.833-.591zm9.478-16.547q2.22-.225 4.096.572a6.94 6.94 0 0 1 3.083 2.38q1.21 1.612 1.433 3.803l.063.622q.225 2.222-.637 4.044a6.95 6.95 0 0 1-2.543 2.95q-1.68 1.128-3.901 1.353l-.948.096q-2.221.225-4.123-.54a7.4 7.4 0 0 1-3.087-2.409q-1.18-1.615-1.403-3.807l-.063-.622q-.222-2.19.611-4.01a7.2 7.2 0 0 1 2.543-2.951q1.707-1.16 3.928-1.385zm-.111 3.631a1.93 1.93 0 0 0-1.388.769 1.98 1.98 0 0 0-.445 1.511l.447 4.412a2.1 2.1 0 0 0 .742 1.421q.653.531 1.512.445a1.98 1.98 0 0 0 1.39-.74q.53-.681.443-1.54l-.448-4.412a1.98 1.98 0 0 0-.739-1.391 1.94 1.94 0 0 0-1.514-.475m20.639-5.712a4.3 4.3 0 0 1 2.281.367 4.3 4.3 0 0 1 1.794 1.463q.694.948.817 2.161l1.114 10.986-5.863.595-.961-9.476q-.075-.74-.6-1.196-.498-.488-1.149-.422-.652.066-1.072.647-.393.548-.318 1.289l.961 9.476-5.863.594-1.534-15.131 4.412-.448.814 2.131q1.377-2.652 4.338-2.952z" fill="#1D1D1D"/><rect x="241.336" y="323" width="327" height="48" rx="24" transform="rotate(13.661 241.336 323)" fill="#F8F24B"/><path d="m287.632 369.244-6.883-1.673-.088-10.099-.173-.042-4.714 8.932-6.999-1.702-.586-21.154 6.276 1.525.127 11.701.116.028 5.513-10.33 6.218 1.511.098 11.694.116.028 5.483-10.337 5.698 1.385zm18.398-11.487q2.226.541 3.606 1.796 1.416 1.231 1.889 2.94.502 1.714.031 3.652l-.435 1.793-9.631-2.34-.338 1.388q-.238.983.242 1.651.51.675 1.493.915 1.012.245 1.681-.235.704-.502.971-1.602l5.293 1.286q-.401 1.649-1.592 2.768-1.162 1.128-3.001 1.507-1.802.358-4.029-.183l-.434-.105q-2.313-.563-3.961-1.851-1.61-1.31-2.287-3.19-.64-1.902-.092-4.158l.218-.896q.548-2.256 1.925-3.637a6.57 6.57 0 0 1 3.41-1.805q2.004-.432 4.318.13zm-1.343 3.38a1.94 1.94 0 0 0-1.564.263q-.72.438-.923 1.276l-.099.405 3.991.97.099-.404a1.98 1.98 0 0 0-.234-1.558 1.94 1.94 0 0 0-1.27-.952m16.043 2.123q.717-.56 1.835-.871 1.123-.34 2.425-.024 1.59.387 2.631 1.528 1.068 1.148 1.377 3.03.344 1.86-.254 4.319l-.077.318q-.597 2.458-1.851 3.961-1.218 1.48-2.839 1.975-1.62.494-3.414.058-3.123-.759-4.261-3.639l-2.494 1.691-2.024-.492 5.061-20.824 5.726 1.392zm1.357 2.229q-.752-.183-1.42.298-.661.451-.865 1.29l-1.02 4.194a2.22 2.22 0 0 0 .17 1.573q.38.704 1.131.887.753.183 1.414-.269.668-.48.872-1.319l1.019-4.194q.204-.839-.176-1.544-.374-.734-1.125-.916m26.592-2.42q2.371.577 4.05 2.24a8.8 8.8 0 0 1 2.386 3.919q.708 2.255.131 4.627l-.604 2.487a8.64 8.64 0 0 1-2.247 4.079 9.1 9.1 0 0 1-3.919 2.386q-2.248.68-4.619.102l-8.937-2.172 4.822-19.84zm-6.51 14.56 2.227.541q1.215.296 2.257-.339t1.338-1.85l1.202-4.946q.296-1.214-.34-2.257-.634-1.043-1.849-1.338l-2.227-.541zm24.302-5.181q2.227.541 3.607 1.795 1.416 1.233 1.889 2.94.502 1.716.031 3.653l-.436 1.793-9.631-2.341-.337 1.388q-.24.984.241 1.652.51.675 1.494.914 1.012.246 1.68-.235.704-.503.971-1.601l5.293 1.286q-.4 1.649-1.592 2.768-1.162 1.126-3 1.507-1.803.358-4.029-.183l-.434-.106q-2.314-.561-3.961-1.851-1.611-1.31-2.288-3.19-.64-1.9-.092-4.157l.218-.897q.548-2.256 1.925-3.636 1.413-1.403 3.41-1.806 2.004-.432 4.318.131zm-1.342 3.38a1.93 1.93 0 0 0-1.565.263 1.98 1.98 0 0 0-.923 1.276l-.098.405 3.991.97.098-.405a1.98 1.98 0 0 0-.234-1.558 1.94 1.94 0 0 0-1.269-.951m25.438 2.783-8.422 13.605-6.623-1.61-1.18-15.939 6.103 1.483.116 8.973.202.049 4.222-7.918zm9.429 1.985q2.227.542 3.607 1.796 1.416 1.232 1.889 2.94.502 1.715.031 3.652l-.436 1.794-9.631-2.341-.337 1.388q-.239.983.242 1.651.51.676 1.493.915 1.012.245 1.68-.235.705-.502.971-1.602l5.293 1.287q-.4 1.648-1.592 2.768-1.161 1.126-3 1.506-1.803.358-4.029-.183l-.434-.105q-2.314-.562-3.961-1.851-1.611-1.31-2.288-3.19-.64-1.902-.092-4.158l.218-.896q.548-2.256 1.925-3.637a6.6 6.6 0 0 1 3.41-1.805q2.005-.432 4.318.13zm-1.342 3.38a1.94 1.94 0 0 0-1.565.263 1.98 1.98 0 0 0-.923 1.277l-.098.405 3.991.97.098-.405a1.98 1.98 0 0 0-.234-1.558 1.93 1.93 0 0 0-1.269-.952m17.884-5.455-5.061 20.824-5.727-1.392 5.061-20.824zm9.384 8.377q2.17.527 3.673 1.903a6.95 6.95 0 0 1 2.115 3.271q.604 1.923.084 4.063l-.147.608q-.528 2.169-1.948 3.6a6.94 6.94 0 0 1-3.38 1.935q-1.96.504-4.129-.023l-.926-.225q-2.169-.527-3.708-1.881a7.4 7.4 0 0 1-2.108-3.3q-.576-1.917-.055-4.057l.147-.607q.52-2.14 1.911-3.579a7.2 7.2 0 0 1 3.381-1.935q1.995-.526 4.165.002zm-1.313 3.387a1.93 1.93 0 0 0-1.565.263 1.98 1.98 0 0 0-.923 1.276l-1.047 4.309q-.204.84.227 1.587.438.719 1.277.923a1.98 1.98 0 0 0 1.557-.234q.726-.466.93-1.305l1.048-4.31a1.98 1.98 0 0 0-.234-1.557 1.94 1.94 0 0 0-1.27-.952m20.004 1.156q1.794.435 3.007 1.619 1.242 1.19 1.637 3.093.431 1.881-.167 4.34l-.077.318q-.597 2.458-1.764 3.982-1.131 1.501-2.607 2.031-1.448.536-3.038.15-2.72-.662-3.375-2.75l-1.645 6.767-5.727-1.392 4.865-20.013 4.569 1.11.106 1.833q2.019-1.623 4.216-1.088m-2.152 3.183q-.752-.183-1.42.298-.661.452-.865 1.29l-1.019 4.194a2.2 2.2 0 0 0 .169 1.573q.38.705 1.132.887.751.184 1.413-.269.668-.48.872-1.319l1.019-4.194q.204-.839-.176-1.544-.374-.733-1.125-.916m28.748 3.281a4.33 4.33 0 0 1 2.029 1.105 4.33 4.33 0 0 1 1.204 1.978q.339 1.124.051 2.309l-2.608 10.73-5.611-1.363 2.278-9.371q.168-.694-.131-1.226a1.24 1.24 0 0 0-.871-.702 1.33 1.33 0 0 0-1.125.217q-.481.342-.65 1.036l-2.277 9.371-5.611-1.364 2.277-9.37q.169-.695-.13-1.227a1.25 1.25 0 0 0-.871-.702 1.33 1.33 0 0 0-1.125.217q-.482.342-.65 1.037l-2.278 9.37-5.61-1.363 3.592-14.779 4.28 1.04.087 2.288q2.47-1.973 4.582-1.46l.781.19q1.215.295 2.079 1.149a4.26 4.26 0 0 1 1.161 2.028 4.8 4.8 0 0 1 1.992-1.262 4.37 4.37 0 0 1 2.374-.066zm15.1 3.67q2.227.541 3.606 1.795 1.416 1.233 1.889 2.941.503 1.714.032 3.652l-.436 1.793-9.631-2.341-.338 1.389q-.238.983.242 1.651.51.675 1.493.914 1.012.246 1.681-.234.704-.503.971-1.602l5.293 1.286q-.4 1.649-1.592 2.768-1.163 1.127-3 1.507-1.803.358-4.03-.183l-.434-.105q-2.313-.562-3.96-1.851-1.611-1.31-2.288-3.19-.64-1.902-.092-4.158l.218-.897q.548-2.255 1.925-3.636a6.6 6.6 0 0 1 3.41-1.805q2.004-.432 4.318.13zm-1.343 3.38a1.94 1.94 0 0 0-1.564.263q-.72.438-.923 1.276l-.099.405 3.992.97.098-.405a1.98 1.98 0 0 0-.234-1.557 1.93 1.93 0 0 0-1.27-.952m20.94 1.383q1.185.288 2.028 1.106a4.3 4.3 0 0 1 1.204 1.977q.339 1.123.051 2.31l-2.608 10.73-5.726-1.392 2.249-9.255q.177-.724-.167-1.327-.308-.627-.944-.781t-1.225.253q-.554.387-.729 1.11l-2.25 9.255-5.726-1.392 3.592-14.779 4.309 1.047.058 2.281q2.182-2.043 5.074-1.34zm13.627 3.619 3.471.843-.998 4.107-3.471-.843-1.328 5.466q-.282 1.156.047 1.696.365.517 1.116.7.346.084.918.131.606.025.96-.042l-.788 3.239q-.736.127-1.963.013-1.228-.115-2.067-.319-2.546-.618-3.708-1.881-1.134-1.256-.593-3.483l1.68-6.912-1.62-.394.998-4.107 1.851.45 3.142-4.229 3.499.85z" fill="#1D1D1D"/><rect x="100.508" y="359.19" width="121" height="48" rx="24" transform="rotate(-13.19 100.508 359.19)" fill="#F8F24B"/><path d="M143.311 362.803q3.535-.83 6.156.177 2.65 1 3.356 4.013l.081.348-5.564 1.304-.027-.116q-.197-.84-.928-1.219-.708-.415-1.925-.13-1.188.279-1.716.769-.533.462-.404 1.012.156.666.946.909.813.207 2.243.178l2.715-.025q5.675-.047 6.701 4.329.835 3.565-1.118 5.796-1.954 2.23-6.098 3.202-2.289.536-4.393.296-2.076-.248-3.597-1.389-1.499-1.178-1.994-3.293l-.082-.348a1.5 1.5 0 0 1-.052-.354l5.621-1.318q-.008.094.053.355.21.899.955 1.335.773.43 2.222.091 1.594-.374 2.099-.828.498-.484.362-1.063-.163-.695-1.056-.854-.9-.186-2.727-.155-2.31.052-3.917-.152-1.585-.24-2.956-1.264-1.379-1.053-1.908-3.313-.475-2.029.293-3.706.798-1.686 2.54-2.858 1.743-1.173 4.119-1.729m26.421-1.057-8.375 1.963.68 2.898 8.055-1.888 1.04 4.434-8.056 1.888.753 3.216 8.375-1.963 1.694 4.617-14.924 3.498-4.659-19.879 14.924-3.498zm11.467-7.762q2.376-.556 4.625.17a8.77 8.77 0 0 1 3.899 2.418q1.65 1.692 2.207 4.068l.706 3.014a8.65 8.65 0 0 1-.162 4.654 9.07 9.07 0 0 1-2.419 3.899q-1.699 1.621-4.075 2.178l-1.623.38q-2.376.558-4.647-.133a9.4 9.4 0 0 1-3.899-2.419q-1.627-1.728-2.185-4.104l-.706-3.013q-.556-2.377.141-4.619a9.1 9.1 0 0 1 2.418-3.899 8.64 8.64 0 0 1 4.097-2.213zm.177 4.667q-1.218.285-1.861 1.322t-.358 2.255l1.311 5.593q.285 1.216 1.322 1.86 1.038.643 2.255.358l.144-.034q1.218-.285 1.861-1.322t.358-2.255l-1.311-5.593q-.285-1.216-1.322-1.86-1.037-.643-2.255-.358z" fill="#1D1D1D"/></svg>