<svg width="411" height="555" viewBox="0 0 411 555" fill="none" xmlns="http://www.w3.org/2000/svg">
<path d="M39.5764 179.431L90.5588 492.642C91.9068 500.898 97.6199 507.778 105.509 510.605L175.37 535.706C181.475 537.899 188.203 537.753 194.2 535.286L345.918 473.06C353.115 470.1 357.345 462.553 356.039 454.874L302.019 132.088C301.067 126.329 296.62 121.789 290.88 120.689L207.355 104.706C203.058 103.886 198.58 104.354 194.561 106.11L44.4204 170.636C40.9805 172.109 38.984 175.751 39.5818 179.456L39.5764 179.431Z" fill="white" stroke="#1D1D1D" stroke-width="4.15662" stroke-miterlimit="10"/>
<path d="M108.999 497.658L127.275 490.225L260.001 436.195L222.921 230.676" stroke="#1D1D1D" stroke-width="4.15662" stroke-miterlimit="10"/>
<path d="M73.5424 299.803L104.202 486.805C105.373 493.847 110.258 499.705 116.941 501.989L180.533 523.867C184.72 525.295 189.268 525.158 193.317 523.423L334.489 463.535C340.373 461.039 343.749 454.737 342.631 448.322L305.326 234.07" fill="#F8F24B"/>
<path d="M73.5424 299.803L104.202 486.805C105.373 493.847 110.258 499.705 116.941 501.989L180.533 523.867C184.72 525.295 189.268 525.158 193.317 523.423L334.489 463.535C340.373 461.039 343.749 454.737 342.631 448.322L305.326 234.07" stroke="#1D1D1D" stroke-width="4.15662" stroke-miterlimit="10"/>
<path d="M74.6134 298.727C75.1492 298.241 75.2202 298.199 75.7868 297.733C76.0601 297.516 76.328 297.273 76.6012 297.055C76.8745 296.838 77.1625 296.564 77.4411 296.372C78.5798 295.466 79.7492 294.58 80.9603 293.765C82.1715 292.95 83.3826 292.135 84.6353 291.391C85.8881 290.647 87.1462 289.928 88.4352 289.229C89.7242 288.531 91.024 287.883 92.3546 287.256C93.6852 286.628 95.0266 286.052 96.368 285.475C97.7094 284.899 99.0871 284.368 100.47 283.862C101.853 283.357 103.262 282.846 104.655 282.391C106.049 281.937 107.494 281.471 108.919 281.037C110.343 280.602 111.799 280.188 113.234 279.804C114.67 279.42 116.131 279.031 117.592 278.643C119.053 278.254 120.524 277.915 121.965 277.557C123.406 277.199 124.903 276.856 126.375 276.518C127.847 276.18 129.318 275.842 130.79 275.504C132.262 275.166 133.739 274.853 135.185 274.52C136.631 274.188 138.103 273.85 139.575 273.512C141.046 273.173 142.493 272.841 143.933 272.483C145.374 272.125 146.821 271.792 148.231 271.414C149.64 271.036 151.081 270.677 152.486 270.274C153.891 269.87 155.275 269.497 156.674 269.068C158.073 268.639 159.422 268.221 160.785 267.746C161.309 267.582 161.802 267.398 162.321 267.208C162.57 267.129 162.839 267.018 163.088 266.939C163.338 266.86 163.602 266.724 163.856 266.67C174.844 262.642 185.52 257.642 195.385 251.324C205.883 244.606 212.696 235.182 222.222 227.765C240.98 213.178 270.423 218.655 291.843 223.062C295.405 223.799 299.034 224.601 302.108 226.557C315.199 234.856 293.357 242.033 287.785 245.127C272.639 253.521 263.763 267.905 251.619 279.548C239.456 291.222 226.149 302.02 210.811 309.257C205.296 311.861 199.565 313.952 193.649 315.417C171.614 320.931 148.634 319.089 126.578 314.444C124.905 314.079 123.231 313.715 121.558 313.351C119.884 312.987 118.2 312.572 116.521 312.182C114.842 311.792 113.158 311.377 111.493 310.931C109.829 310.485 108.145 310.07 106.48 309.624C104.816 309.178 103.147 308.706 101.477 308.235C99.8074 307.763 98.1632 307.286 96.4882 306.789C94.8132 306.292 93.1891 305.784 91.5342 305.257C89.8792 304.729 88.2498 304.196 86.5948 303.668C84.9399 303.14 83.3305 302.576 81.6956 302.017C80.0608 301.458 78.446 300.869 76.8312 300.279C76.3698 300.111 75.9085 299.942 75.4471 299.774C75.2164 299.69 74.9857 299.606 74.755 299.521C74.6424 299.492 73.5326 299.78 73.5003 299.627C73.4464 299.373 74.5625 298.737 74.6536 298.665L74.6027 298.676L74.6134 298.727Z" fill="#F8F24B" stroke="#1D1D1D" stroke-width="4.15662" stroke-miterlimit="10"/>
<path opacity="0.3" d="M103.188 419.088C103.188 419.088 110.903 471.389 110.924 471.491C111.704 476.807 112.358 481.91 114.903 486.773C120.699 497.812 136.562 498.34 147.368 501.375L103.157 419.068L103.182 419.062L103.188 419.088Z" fill="white" stroke="#1D1D1D" stroke-width="0.290964" stroke-miterlimit="10"/>
<path d="M185.459 537.431L128.525 199.111" stroke="#1D1D1D" stroke-width="4.15662" stroke-miterlimit="10"/>
<path d="M41.8421 178.047L98.1536 270.884L128.933 199.315L44.32 174.542C42.2977 174.039 40.6993 176.293 41.8622 178.016L41.8421 178.047Z" fill="white" stroke="#1D1D1D" stroke-width="4.15662" stroke-miterlimit="10"/>
<path d="M99.0752 268.427L82.2604 188.97C82.0341 187.9 82.7275 186.902 83.7662 186.655C92.2639 184.564 125.14 169.173 127.634 168.006C144.225 160.158 160.911 152.503 177.666 145.046" stroke="#1D1D1D" stroke-width="4.15662" stroke-miterlimit="10"/>
<path d="M226.921 467.111C226.921 467.111 227.115 467.149 227.222 467.153C234.617 468.276 241.098 462.062 240.795 454.596L238.117 436.404L229.223 106.197C228.7 103.727 229.208 102.103 229.026 101.37L229.198 94.3887C228.907 93.0134 229.249 91.6107 230.11 90.5239L306.659 20.737C307.974 19.1549 308.03 16.9079 306.847 15.2159C304.73 12.1252 300.336 7.70692 292.183 6.39892C290.531 6.13654 288.823 6.7376 287.77 8.05122L210.359 70.9963C206.478 74.159 204.079 78.7908 203.752 83.7825C203.511 87.798 203.362 91.8738 203.441 92.4958L205.764 111.774C205.814 112.135 205.833 112.477 205.858 112.845L216.093 433.296L217.108 455.697C217.365 461.31 221.391 466.126 226.915 467.085L226.921 467.111Z" fill="white" stroke="#1D1D1D" stroke-width="4.15662" stroke-miterlimit="10"/>
<path d="M209.681 73.3242C209.681 73.3242 209.41 73.3017 209.272 73.2777C208.919 73.2459 208.51 73.1994 208.175 73.3767C207.795 73.5902 207.59 74.0061 207.442 74.4366C207.092 75.5484 207.034 76.7845 207.302 77.9251C205.782 77.1559 203.715 77.6997 202.761 79.099C201.806 80.4983 202.07 82.6243 203.344 83.7384C201.991 83.7586 200.477 84.0256 199.698 85.1218C198.784 86.4594 199.417 88.3209 200.356 89.6123C201.294 90.9038 202.584 92.0943 202.995 93.6571C201.811 93.7213 200.345 94.5902 200.105 95.9714C199.799 97.7923 199.486 99.0824 200.859 100.415C201.995 101.505 204.523 103.019 206.074 103.303C211.026 104.197 215.983 105.117 220.91 106.017C221.989 106.214 223.094 106.406 224.207 106.383C225.079 106.358 225.976 106.195 226.79 105.89C227.75 105.527 228.739 104.919 229.034 103.925C229.33 102.931 228.912 102.594 227.591 101.756C228.792 101.901 230.069 101.018 230.214 99.8171C230.359 98.6157 229.235 98.5874 228.014 97.5952C229.368 97.7078 230.825 96.9206 231.214 95.6144C231.603 94.3082 227.759 93.4984 226.982 92.4656C227.909 92.6952 229.455 94.9754 231.036 93.3904C231.233 93.1891 232 91.9093 232.104 91.6477C232.489 90.4488 232.534 89.029 231.833 87.98C231.21 87.0475 230.122 86.5593 229.116 86.0804C224.548 83.8543 221.211 79.9042 217.199 76.7886C216.179 75.9933 212.27 73.8671 210.748 73.3378C209.4 72.878 209.619 73.284 209.619 73.284L209.681 73.3242Z" fill="white" stroke="#1D1D1D" stroke-width="4.15662" stroke-miterlimit="10"/>
<path d="M206.898 77.2646C210.149 80.8073 216.432 85.2249 220.137 88.2724C222.26 90.005 224.383 91.7376 227.046 92.5044" fill="white"/>
<path d="M206.898 77.2646C210.149 80.8073 216.432 85.2249 220.137 88.2724C222.26 90.005 224.383 91.7376 227.046 92.5044" stroke="#1D1D1D" stroke-width="4.15662" stroke-miterlimit="10"/>
<path d="M202.398 82.978C206.722 86.5598 212.238 92.7627 218.007 95.0009C221.576 96.4008 225.201 97.8155 228.543 97.6404" fill="white"/>
<path d="M202.398 82.978C206.722 86.5598 212.238 92.7627 218.007 95.0009C221.576 96.4008 225.201 97.8155 228.543 97.6404" stroke="#1D1D1D" stroke-width="4.15662" stroke-miterlimit="10"/>
<path d="M202.391 92.7725C208.572 97.2117 220.164 100.692 227.661 101.793L202.391 92.7725Z" fill="white"/>
<path d="M202.391 92.7725C208.572 97.2117 220.164 100.692 227.661 101.793" stroke="#1D1D1D" stroke-width="4.15662" stroke-miterlimit="10"/>
<path d="M306.844 20.4949C308.485 18.2576 305.746 13.4591 300.727 9.77715C295.707 6.09522 290.308 4.92412 288.667 7.16141C287.026 9.39871 289.764 14.1972 294.784 17.8791C299.803 21.5611 305.203 22.7322 306.844 20.4949Z" fill="#1D1D1D" stroke="#1D1D1D" stroke-width="4.15662" stroke-miterlimit="10"/>
<path d="M130.597 198.673L297.4 123.862" stroke="#1D1D1D" stroke-width="4.15662" stroke-miterlimit="10"/>
<path d="M193.518 170.514L227.076 155.456" stroke="#1D1D1D" stroke-width="4.15662" stroke-miterlimit="10"/>
<path d="M208.855 141.64C215.133 140.631 221.351 139.209 227.463 137.41C229.544 136.81 231.66 136.123 233.376 134.802C235.092 133.48 236.299 131.389 235.97 129.33" stroke="#1D1D1D" stroke-width="4.15662" stroke-miterlimit="10"/>
<path d="M211.849 308.18L234.53 293.269L240.492 451.201C240.672 456.324 238.697 461.452 234.72 464.662C231.563 467.219 227.349 468.43 222.669 464.045C219.022 460.64 217.089 455.781 216.911 450.79L211.844 308.154L211.849 308.18Z" fill="#F8F24B" stroke="#1D1D1D" stroke-width="4.15662" stroke-miterlimit="10"/>
<g opacity="0.42">
<path opacity="0.3" d="M187.25 456.853L195.691 494.605" stroke="white" stroke-width="3.11747" stroke-miterlimit="10" stroke-linecap="round"/>
<path opacity="0.3" d="M196.578 460.574L202.543 487.249" stroke="white" stroke-width="3.11747" stroke-miterlimit="10" stroke-linecap="round"/>
<path opacity="0.3" d="M205.953 465.349L208.989 478.942" stroke="white" stroke-width="3.11747" stroke-miterlimit="10" stroke-linecap="round"/>
</g>
<path opacity="0.11" d="M298.445 250.347C300.605 249.996 302.649 251.479 303 253.64L334.404 448.813C334.755 450.974 333.271 453.017 331.111 453.368C328.95 453.719 326.906 452.235 326.556 450.075L295.151 254.902C294.8 252.741 296.284 250.698 298.445 250.347Z" fill="white"/>
<path d="M186.311 434.536C184.266 434.676 182.492 434.466 180.984 433.881L179.233 424.726L187.646 421.482L187.754 421.991C188.097 423.861 189.008 424.52 190.487 423.967C191.25 423.673 191.76 423.192 192.049 422.546C192.338 421.899 192.369 421.041 192.168 419.966L188.271 399.665L184.484 401.131L182.837 392.593L200.517 385.738L202.164 394.277L200.05 395.097L203.405 412.586C204.375 417.676 203.897 421.954 201.97 425.422C200.038 428.864 196.937 431.436 192.631 433.092C190.466 433.923 188.363 434.421 186.317 434.562L186.311 434.536Z" fill="#1D1D1D"/>
<path d="M214.848 420.596C211.983 419.127 210.035 415.708 209.005 410.338L205.661 392.9L203.546 393.72L201.899 385.181L217.49 379.141L219.137 387.68L217.465 388.326L221.344 408.419C221.587 409.565 221.932 410.317 222.442 410.714C222.946 411.086 223.621 411.13 224.434 410.825C225.248 410.52 225.803 410.003 226.107 409.3C226.411 408.597 226.457 407.683 226.24 406.531L222.36 386.439L220.688 387.086L219.04 378.547L233.478 372.964L235.125 381.503L233.01 382.323L236.355 399.761C237.384 405.131 236.973 409.475 235.09 412.774C233.208 416.072 230.116 418.563 225.765 420.255C221.413 421.948 217.718 422.091 214.853 420.622L214.848 420.596Z" fill="#1D1D1D"/>
<path d="M242.751 412.88L241.104 404.342L243.219 403.522L238.715 380.102L236.6 380.922L234.953 372.384L250.966 366.201L252.613 374.74L250.499 375.56L255.002 398.979L257.117 398.159L258.764 406.698L242.751 412.88Z" fill="#1D1D1D"/>
<path d="M263.678 400.207C260.151 398 257.704 393.223 256.284 385.887C253.591 371.903 257.752 362.774 268.748 358.531C271.401 357.491 273.974 356.946 276.403 356.858C278.832 356.77 280.713 356.983 282.026 357.53L284.54 370.542L274.434 374.463L273.719 370.703C273.438 369.379 273.041 368.505 272.443 368.073C271.846 367.64 271.065 367.593 270.104 367.956C269.143 368.319 268.496 368.908 268.138 369.729C267.779 370.55 267.735 371.597 267.989 372.927L271.024 388.648C271.304 389.972 271.702 390.846 272.299 391.279C272.896 391.711 273.678 391.758 274.638 391.395C275.599 391.032 276.246 390.443 276.605 389.622C276.963 388.801 277.008 387.754 276.753 386.425L275.94 382.206L286.046 378.285L288.631 391.76C287.657 393.19 286.117 394.714 284.027 396.406C281.906 398.079 279.558 399.428 276.899 400.443C271.587 402.498 267.18 402.42 263.673 400.182L263.678 400.207Z" fill="#1D1D1D"/>
<path d="M290.865 394.265L289.218 385.726L291.332 384.906L286.829 361.487L284.714 362.307L283.067 353.769L311.499 342.776L314.533 358.498L305.088 362.146L303.701 354.963L298.612 356.945L300.195 365.177L303.911 363.752L305.06 369.682L301.343 371.107L303.116 380.364L308.205 378.383L306.622 370.15L316.067 366.501L319.297 383.272L290.865 394.265Z" fill="#1D1D1D"/>
<path d="M190.339 491.026L193.415 489.843L186.868 455.761L183.792 456.944L181.402 444.518L209.514 433.647C214.602 431.665 218.837 431.434 222.202 432.878C225.548 434.351 227.701 437.488 228.607 442.272C229.187 445.262 229.1 447.994 228.346 450.469C227.593 452.943 226.569 455.022 225.234 456.635C223.905 458.273 222.545 459.519 221.198 460.443L221.359 461.207C224.312 460.449 227.157 460.565 229.849 461.592C232.541 462.619 234.366 465.585 235.335 470.542C236.349 475.835 235.495 480.353 232.733 484.024C229.977 487.72 226.032 490.577 220.887 492.544L192.775 503.415L190.385 490.99L190.339 491.026ZM209.693 460.27C210.873 459.807 211.702 459.073 212.13 458.078C212.583 457.077 212.645 455.734 212.32 454.073L211.794 451.337C211.469 449.677 210.941 448.564 210.21 448.001C209.453 447.443 208.513 447.402 207.309 447.87L204.015 449.152L206.405 461.578L209.699 460.295L209.693 460.27ZM214.293 481.753C215.472 481.291 216.276 480.562 216.729 479.561C217.183 478.561 217.244 477.217 216.914 475.531L216.264 472.21C215.939 470.549 215.411 469.437 214.68 468.873C213.923 468.315 212.984 468.274 211.804 468.737L208.068 470.192L210.582 483.204L214.318 481.748L214.293 481.753Z" fill="#1D1D1D"/>
<path d="M244.737 476.639C239.733 473.361 236.209 466.391 234.171 455.753C232.133 445.116 232.665 436.569 235.805 430.157C238.945 423.745 244.238 419.086 251.716 416.2C259.194 413.314 265.43 413.484 270.409 416.768C275.413 420.046 278.931 426.991 280.975 437.654C283.018 448.316 282.48 456.838 279.34 463.25C276.201 469.662 270.907 474.321 263.429 477.207C255.951 480.093 249.716 479.923 244.737 476.639ZM263.705 461.158C264.228 459.983 264.297 458.425 263.918 456.509L259.508 433.655C259.129 431.74 258.512 430.46 257.658 429.816C256.778 429.178 255.649 429.124 254.271 429.655C252.893 430.186 251.933 431.054 251.41 432.229C250.887 433.404 250.818 434.962 251.196 436.878L255.607 459.731C255.996 461.698 256.613 462.978 257.462 463.596C258.337 464.209 259.461 464.237 260.838 463.706C262.216 463.175 263.176 462.307 263.699 461.132L263.705 461.158Z" fill="#1D1D1D"/>
<path d="M329.225 437.288L331.807 436.289L334.197 448.715L311.057 457.683L308.667 445.257L311.173 444.274L306.428 439.452L305.813 439.688L303.452 447.265L305.958 446.283L308.348 458.708L286.9 466.999L284.51 454.573L287.708 453.338L296.322 432.437L280.673 419.465L278.09 420.464L275.7 408.038L298.673 399.159L301.063 411.585L298.724 412.479L303.277 417.396L303.892 417.159L306.055 409.65L303.716 410.544L301.326 398.119L322.575 389.897L324.965 402.322L321.768 403.558L313.303 424.161L329.199 437.293L329.225 437.288Z" fill="#1D1D1D"/>
</svg>
