<svg width="601" height="150" viewBox="0 0 601 150" fill="none" xmlns="http://www.w3.org/2000/svg"><rect x="50" y="107" width="156" height="48" rx="24" transform="rotate(-12.406 50 107)" fill="#F8F24B"/><path d="M104.646 123.149q.442 2.006-.214 3.734-.633 1.694-2.227 2.898-1.595 1.204-3.95 1.722l-1.249.275q-2.355.518-4.307.094t-3.266-1.689q-1.293-1.3-1.734-3.306l-2.992-13.604 6.133-1.35 2.974 13.517q.21.96 1.014 1.423.831.457 1.82.239.988-.216 1.523-.974.563-.764.352-1.724l-2.974-13.516 6.105-1.343zm14.385-7.553 8.564 9.148-7.092 1.56-4.734-5.449-.116.025-1.981 6.927-6.57 1.445 3.929-11.926-7.676-8.156 7.064-1.553 3.88 4.479.117-.025 1.642-5.695 6.54-1.439zm22.253-14.769-8.735 28.039-3.837.844 8.764-28.045zm21.897 9.446q.442 2.006-.215 3.734-.633 1.694-2.227 2.898-1.594 1.203-3.949 1.722l-1.25.275q-2.354.517-4.306.094-1.953-.424-3.267-1.689-1.292-1.3-1.733-3.307l-2.993-13.604 6.134-1.349 2.973 13.517q.212.96 1.014 1.423.833.456 1.82.239.989-.218 1.523-.975.564-.763.352-1.723l-2.973-13.517 6.104-1.343zm11.363-12.283-2.354.518 2.5 11.366 2.354-.518.947 4.302-10.872 2.392-.946-4.302 2.354-.518-2.5-11.366-2.354.518-.94-4.273 10.871-2.392z" fill="#1D1D1D"/><rect y="107" width="196" height="48" rx="24" transform="rotate(-12.406 0 107)" fill="#F8F24B"/><path d="M45.782 110.836a5.4 5.4 0 0 1 2.763.093 4.96 4.96 0 0 1 2.309 1.352 4.6 4.6 0 0 1 1.235 2.288q.447 2.034-.217 3.308t-2.103 2.078l.026.116q4 .035 4.9 4.134a5.1 5.1 0 0 1-.167 2.84 5.5 5.5 0 0 1-1.577 2.389q-1.096.972-2.608 1.305l-11.104 2.443-4.387-19.941zm-3.638 8.816 3.343-.736q.61-.134.928-.631a1.46 1.46 0 0 0 .206-1.142l-.109-.494a1.37 1.37 0 0 0-.66-.922 1.37 1.37 0 0 0-1.113-.212l-3.343.736zm1.688 7.674 3.692-.812q.61-.135.928-.631.34-.533.206-1.143l-.115-.523a1.36 1.36 0 0 0-.66-.921 1.37 1.37 0 0 0-1.114-.213l-3.691.813zm19.814-15.391q1.918-.422 3.202.423 1.305.81 1.715 2.671l.108.494.185 1.117.102.74-4.71 1.036-.153-.698q-.135-.61-.601-.934-.445-.36-.94-.251-.523.115-.805.634-.258.484-.125 1.095l2.098 9.534-5.61 1.234-3.268-14.854 4.302-.946 1.113 2.01q.098-.387.464-1.077t1.107-1.341 1.816-.887m13.455-2.96q3.372-.741 5.433.177 2.09.911 2.55 3.004l1.35 6.134q.12.552.44.756a.9.9 0 0 0 .697.121q.552-.122.96-.485l.684 3.11q-.783.873-2.789 1.314-1.86.41-3.07.036-1.217-.403-1.721-1.45a8 8 0 0 1-1.687 2.169q-.963.882-2.591 1.24-2.325.511-3.978-.069-1.65-.582-2.233-3.227-.441-2.005.456-3.331.89-1.353 2.894-2.221 2.025-.903 5.282-1.619l-.186-.843q-.18-.814-.833-1.158-.626-.35-1.44-.171a2.33 2.33 0 0 0-1.19.689q-.498.505-.37 1.087l.026.116-5.523 1.215q-.048-.08-.119-.4-.274-1.251.35-2.424.65-1.209 2.091-2.136 1.464-.962 3.557-1.423zm3.259 8.304q-1.919.423-2.705 1.144-.792.691-.594 1.593.306 1.395 2.05 1.012.815-.18 1.275-.859.453-.71.255-1.611zm17.496-12.869a4.3 4.3 0 0 1 2.308.101 4.33 4.33 0 0 1 1.951 1.248 4.3 4.3 0 0 1 1.061 2.052l2.372 10.784-5.756 1.266-2.046-9.302q-.159-.726-.733-1.118-.552-.428-1.191-.287-.639.14-.99.766-.327.591-.167 1.317l2.046 9.302-5.755 1.266-3.268-14.854 4.331-.953 1.055 2.024q1.062-2.794 3.968-3.433zm20.471 11.374-.9-1.6q-1.158 2.358-3.309 2.831-1.802.396-3.441-.127-1.61-.53-2.823-2.03-1.192-1.536-1.735-4.007l-.07-.32q-.544-2.47-.188-4.317.378-1.881 1.443-2.999 1.093-1.123 2.692-1.476 2.733-.6 4.24.987l-1.675-7.616 5.755-1.266 4.604 20.93zm-5.497-10.859q-.756.166-1.144.892-.396.696-.21 1.539l.927 4.215a2.2 2.2 0 0 0 .843 1.339q.651.465 1.407.3.755-.167 1.151-.863a2.2 2.2 0 0 0 .203-1.569l-.927-4.215q-.185-.843-.836-1.309-.658-.495-1.414-.329m15.022-8.82-5.726 1.26-.915-4.157 5.727-1.26zm3.69 16.772-5.727 1.26-3.261-14.825 5.726-1.26zm9.803-18.034a4.3 4.3 0 0 1 2.308.102 4.3 4.3 0 0 1 1.951 1.247 4.33 4.33 0 0 1 1.061 2.052l2.372 10.785-5.755 1.266-2.047-9.302q-.16-.727-.733-1.119-.552-.427-1.191-.286-.64.14-.989.766-.328.59-.168 1.317l2.046 9.301-5.755 1.267-3.268-14.855 4.331-.952 1.055 2.023q1.062-2.793 3.969-3.433zm22.313-7.407q.372 1.686-.245 2.766-.586 1.074-2.089 1.861a4.25 4.25 0 0 1 1.505 1.163q.615.717.807 1.59.282 1.278-.267 2.527-.548 1.248-1.745 2.182-1.202.904-2.772 1.25l-2.006.441q-.843.185-1.192.536-.356.322-.273.7a.77.77 0 0 0 .496.592q.4.156 1.359-.055l4.738-1.042q2.326-.512 3.764.482 1.43.966 1.885 3.029.287 1.308-.277 2.621-.53 1.335-1.719 2.298a6.3 6.3 0 0 1-2.724 1.331l-7.704 1.694q-1.423.314-2.694-.474-1.242-.793-1.561-2.247l-.032-.145a3.08 3.08 0 0 1 .23-2.001 4.2 4.2 0 0 1 1.282-1.653 3.35 3.35 0 0 1-1.26-.881 2.9 2.9 0 0 1-.691-1.341q-.237-1.076.327-2.114a3.9 3.9 0 0 1 1.663-1.585q-1.165-.444-1.974-1.212-.809-.766-1.032-1.784-.454-2.064.973-3.75t4.683-2.4l.814-.18q1.047-.23 1.957-.247.945-.97 1.263-1.74.311-.801.209-1.266zm-7.395 7.112q-.756.166-1.157.834a1.83 1.83 0 0 0-.213 1.387q.166.756.782 1.2.638.408 1.394.242t1.135-.799a1.88 1.88 0 0 0 .235-1.423 1.78 1.78 0 0 0-.804-1.164 1.64 1.64 0 0 0-1.372-.277m.467 12.788q-.61.135-.97.579-.33.439-.222.933t.593.753q.519.282 1.129.148l4.157-.914q.61-.135.941-.573.359-.444.251-.939-.11-.494-.628-.776-.485-.26-1.094-.125z" fill="#1D1D1D"/><rect x="165" y="106" width="386" height="48" rx="24" transform="rotate(-5.223 165 106)" fill="#F8F24B"/><path d="m227.034 134.471-6.224.569-1.192-13.041-.119.01-2.365 13.367-7.143.653-4.719-12.719-.148.014 1.192 13.041-5.661.518-1.859-20.333 10.196-.932 3.926 10.58.119-.011 1.883-11.111 10.256-.938zm9.523-16.442q3.438-.314 5.368.855 1.96 1.166 2.155 3.299l.572 6.254q.051.564.342.806t.677.207a2.1 2.1 0 0 0 1.013-.361l.29 3.171q-.886.768-2.932.955-1.896.174-3.05-.348-1.157-.552-1.526-1.654a8 8 0 0 1-1.945 1.941q-1.067.755-2.726.907-2.372.216-3.938-.567t-1.812-3.48q-.187-2.045.869-3.248 1.053-1.231 3.149-1.842 2.123-.642 5.442-.946l-.078-.859q-.076-.83-.682-1.253-.577-.426-1.407-.35-.682.063-1.267.534-.557.44-.503 1.033l.011.118-5.632.515q-.037-.086-.067-.412-.117-1.275.651-2.361.794-1.119 2.34-1.858 1.573-.771 3.708-.966zm2.195 8.646q-1.956.18-2.826.797-.873.588-.789 1.506.13 1.423 1.908 1.261a2 2 0 0 0 1.372-.694q.538-.647.454-1.565zm17.575-10.453q1.957-.179 3.124.82 1.194.967 1.368 2.864l.046.504.043 1.132.009.746-4.802.439-.065-.711q-.057-.623-.48-1.002-.396-.413-.9-.366-.534.048-.878.528-.318.447-.261 1.07l.888 9.722-5.72.523-1.385-15.146 4.387-.401.853 2.134q.145-.372.595-1.011t1.266-1.192 1.912-.653m11.283-6.979 1.082 11.826 3.338-5.983 6.699-.613-4.68 7.332 6.153 7.806-6.906.631-3.061-4.054-.983 1.017.309 3.379-5.868.536-1.951-21.341zm20.681 4.057q2.283-.209 3.994.532 1.738.708 2.739 2.17 1.03 1.46 1.211 3.446l.168 1.838-9.87.902.13 1.423q.092 1.008.764 1.484.7.474 1.708.382 1.038-.095 1.514-.766.504-.704.401-1.83l5.424-.496q.155 1.69-.61 3.134-.735 1.443-2.351 2.397-1.59.922-3.872 1.131l-.445.041q-2.37.217-4.346-.47-1.949-.718-3.197-2.278-1.222-1.591-1.433-3.904l-.084-.918q-.211-2.312.644-4.064.884-1.785 2.643-2.812 1.755-1.058 4.127-1.274zm-.176 3.633a1.93 1.93 0 0 0-1.395.755 1.98 1.98 0 0 0-.46 1.506l.038.415 4.09-.374-.038-.414a1.98 1.98 0 0 0-.726-1.399 1.94 1.94 0 0 0-1.509-.489m16.582-4.834 3.557-.325.384 4.209-3.556.325.512 5.602q.108 1.186.593 1.59.512.372 1.283.301.356-.032.911-.173.582-.172.894-.351l.304 3.32q-.656.358-1.854.648-1.198.288-2.058.367-2.609.239-4.118-.58-1.48-.821-1.689-3.103l-.647-7.084-1.66.151-.385-4.208 1.897-.174 1.604-5.018 3.586-.328zm11.349-3.01-5.839.534-.387-4.238 5.839-.534zm1.564 17.103-5.839.533-1.382-15.116 5.839-.534zm11.982-16.667a4.33 4.33 0 0 1 2.277.389 4.3 4.3 0 0 1 1.779 1.482q.685.953.796 2.168l1.005 10.997-5.868.536-.868-9.484q-.067-.741-.588-1.202-.492-.493-1.145-.433-.652.06-1.078.636-.398.545-.33 1.286l.867 9.485-5.869.536-1.385-15.146 4.417-.404.793 2.139q1.403-2.639 4.367-2.909zm23.064-4.559q.156 1.719-.589 2.714-.716.991-2.306 1.585a4.25 4.25 0 0 1 1.348 1.341q.52.79.602 1.679.119 1.304-.581 2.474t-2.004 1.946q-1.307.748-2.907.894l-2.045.187q-.86.078-1.25.383-.394.275-.358.66a.77.77 0 0 0 .418.65q.377.204 1.355.115l4.831-.442q2.372-.217 3.674.95 1.299 1.136 1.491 3.241.123 1.334-.602 2.565-.692 1.259-1.993 2.065a6.3 6.3 0 0 1-2.869.98l-7.855.718q-1.453.132-2.614-.807-1.132-.943-1.268-2.425l-.013-.148a3.08 3.08 0 0 1 .478-1.957 4.2 4.2 0 0 1 1.479-1.48 3.3 3.3 0 0 1-1.14-1.031 2.9 2.9 0 0 1-.518-1.417q-.1-1.097.589-2.057a3.9 3.9 0 0 1 1.847-1.364q-1.1-.587-1.806-1.449t-.801-1.899q-.192-2.105 1.435-3.598 1.626-1.494 4.946-1.797l.83-.076a10 10 0 0 1 1.972-.001q1.059-.844 1.471-1.569.41-.755.366-1.229zm-8.227 6.132a1.73 1.73 0 0 0-1.253.682 1.84 1.84 0 0 0-.384 1.35q.07.77.626 1.288a1.78 1.78 0 0 0 1.352.414q.771-.07 1.226-.65.483-.612.412-1.382a1.78 1.78 0 0 0-.653-1.256 1.64 1.64 0 0 0-1.326-.446m-1.136 12.746q-.622.057-1.035.453-.383.394-.336.898.046.503.494.821.479.345 1.102.288l4.238-.388q.623-.056 1.005-.45.413-.396.366-.9t-.526-.849q-.447-.318-1.07-.261zm25.775-23.158q2.46-.225 4.476.577 2.043.77 3.348 2.623 1.302 1.824 1.56 4.639l-5.839.534-.095-1.037q-.124-1.364-1.057-2.085-.903-.725-2.178-.608l-.148.013q-1.245.114-2.026 1.052t-.667 2.183l.523 5.721q.113 1.245 1.052 2.026.938.78 2.183.667l.415-.038q1.274-.117 2.034-.963.786-.879.659-2.272l-.09-.978 5.573-.51q.238 2.609-.68 4.665-.888 2.054-2.69 3.265-1.803 1.21-4.203 1.43l-.83.076q-2.639.241-4.899-.628a8.25 8.25 0 0 1-3.661-2.774q-1.43-1.902-1.678-4.628l-.288-3.142q-.235-2.579.825-4.708a8.87 8.87 0 0 1 3.089-3.481q2.002-1.318 4.462-1.543zm19.017 3.492q3.438-.315 5.369.854 1.959 1.166 2.154 3.3l.572 6.254q.05.563.343.806.29.242.676.207a2.1 2.1 0 0 0 1.013-.362l.29 3.172q-.887.768-2.931.955-1.897.173-3.051-.349-1.156-.552-1.526-1.654a8 8 0 0 1-1.945 1.941q-1.067.756-2.726.907-2.371.217-3.937-.566-1.566-.784-1.813-3.481-.187-2.045.869-3.247 1.053-1.233 3.149-1.842 2.123-.643 5.443-.946l-.079-.86q-.075-.83-.682-1.253-.577-.425-1.407-.349a2.3 2.3 0 0 0-1.266.534q-.558.44-.504 1.032l.011.119-5.631.515q-.038-.087-.068-.413-.116-1.274.651-2.36.795-1.119 2.341-1.858 1.574-.772 3.707-.967zm2.195 8.646q-1.956.179-2.826.796-.873.588-.789 1.507.13 1.422 1.909 1.26a2 2 0 0 0 1.371-.693q.539-.647.455-1.566zm27.031-11.318a4.3 4.3 0 0 1 2.277.39 4.3 4.3 0 0 1 1.779 1.481 4.3 4.3 0 0 1 .796 2.169l1.006 10.996-5.751.526-.877-9.603q-.065-.712-.521-1.118a1.24 1.24 0 0 0-1.051-.383 1.33 1.33 0 0 0-.994.569q-.345.48-.28 1.192l.878 9.603-5.75.526-.878-9.604q-.065-.711-.521-1.118a1.24 1.24 0 0 0-1.051-.382 1.33 1.33 0 0 0-.994.569q-.345.48-.279 1.191l.877 9.604-5.75.525-1.384-15.146 4.386-.401.823 2.137q1.7-2.666 3.863-2.864l.8-.073q1.245-.114 2.34.414a4.27 4.27 0 0 1 1.755 1.543 4.8 4.8 0 0 1 1.475-1.839 4.4 4.4 0 0 1 2.226-.831zm16.364-1.496q1.837-.168 3.369.559 1.56.724 2.55 2.397 1.017 1.641 1.247 4.16l.03.326q.23 2.52-.381 4.339-.584 1.787-1.809 2.765-1.196.977-2.826 1.125-2.787.255-4.083-1.509l.634 6.936-5.869.536-1.875-20.511 4.683-.428.693 1.7q1.384-2.188 3.637-2.395m-1.006 3.709q-.77.07-1.247.741-.48.642-.401 1.502l.393 4.297q.078.86.669 1.434.588.543 1.358.473t1.25-.712q.477-.671.398-1.531l-.393-4.297q-.078-.86-.666-1.404-.59-.573-1.361-.503m17.533-5.22q3.438-.314 5.368.855 1.96 1.165 2.155 3.3l.571 6.254q.052.563.343.805t.676.207a2.1 2.1 0 0 0 1.014-.361l.289 3.171q-.885.769-2.931.956-1.897.173-3.05-.349-1.157-.552-1.526-1.654a8 8 0 0 1-1.945 1.941q-1.067.756-2.727.907-2.37.218-3.937-.567-1.566-.783-1.812-3.48-.187-2.046.868-3.248 1.053-1.231 3.15-1.842 2.123-.642 5.442-.945l-.078-.86q-.076-.83-.683-1.253-.576-.425-1.406-.349a2.3 2.3 0 0 0-1.267.534q-.557.44-.503 1.032l.011.119-5.632.514q-.037-.085-.067-.412-.117-1.274.651-2.361.794-1.118 2.34-1.857 1.574-.772 3.708-.967zm2.195 8.647q-1.956.178-2.826.796-.873.588-.789 1.507.13 1.422 1.908 1.26a2 2 0 0 0 1.372-.693q.538-.648.454-1.566zm14.223-11.82-5.84.533-.387-4.239 5.839-.533zm1.563 17.101-5.839.534-1.382-15.116 5.839-.534zm17.302-19.603q.158 1.719-.588 2.713-.717.993-2.306 1.586.856.549 1.348 1.341.52.79.601 1.679.12 1.304-.58 2.474t-2.004 1.946a7.1 7.1 0 0 1-2.907.894l-2.045.187q-.86.078-1.251.383-.393.275-.358.66a.77.77 0 0 0 .418.649q.378.205 1.356.116l4.831-.442q2.371-.217 3.673.949 1.3 1.137 1.492 3.241.122 1.335-.602 2.566-.692 1.258-1.993 2.065a6.3 6.3 0 0 1-2.87.98l-7.854.718q-1.452.132-2.614-.807-1.133-.943-1.268-2.425l-.014-.148a3.1 3.1 0 0 1 .479-1.957 4.2 4.2 0 0 1 1.479-1.48 3.35 3.35 0 0 1-1.141-1.031 2.9 2.9 0 0 1-.518-1.418q-.1-1.096.589-2.056a3.9 3.9 0 0 1 1.848-1.364q-1.1-.587-1.806-1.449-.707-.863-.801-1.899-.192-2.105 1.434-3.599 1.627-1.493 4.947-1.797l.83-.076a10 10 0 0 1 1.972 0q1.059-.844 1.471-1.57.409-.754.366-1.228zm-8.226 6.131a1.74 1.74 0 0 0-1.253.683 1.84 1.84 0 0 0-.384 1.35q.07.77.625 1.288.583.484 1.353.414.771-.07 1.226-.65.482-.612.412-1.383a1.78 1.78 0 0 0-.653-1.255 1.64 1.64 0 0 0-1.326-.447m-1.136 12.747q-.623.057-1.035.453-.382.393-.336.897t.493.822q.48.345 1.103.288l4.238-.388q.623-.057 1.005-.45.412-.396.366-.9t-.526-.849q-.447-.318-1.07-.261zm21.525-17.54a4.3 4.3 0 0 1 2.277.39 4.3 4.3 0 0 1 1.779 1.481q.685.954.796 2.17l1.005 10.996-5.868.536-.867-9.485q-.069-.74-.588-1.201-.494-.493-1.146-.434-.653.06-1.077.637-.399.544-.331 1.285l.867 9.485-5.869.537-1.384-15.146 4.416-.404.793 2.14q1.403-2.64 4.367-2.91zm14.838-1.356a9.6 9.6 0 0 1 2.949.209q1.552.306 2.644 1.133 1.09.826 1.211 2.13.024.268.016.507-.01.21-.005.27l-4.861.444q-.066-.711-.744-.948-.652-.27-1.453-.196-2.193.2-2.115 1.06.05.534.72.682.697.115 2.256.152 2.037.053 3.373.29 1.366.233 2.44 1.181 1.1.916 1.278 2.872.255 2.785-1.674 4.248-1.899 1.458-4.863 1.729l-1.541.141a10 10 0 0 1-3.217-.214q-1.531-.398-2.577-1.378t-1.187-2.522l-.024-.267a.9.9 0 0 1 .005-.269l4.801-.439.011.119q.08.86.882 1.144.8.256 1.808.164a7.8 7.8 0 0 0 1.673-.332q.814-.255.763-.817-.052-.564-.753-.709-.702-.174-2.296-.268-1.919-.063-3.287-.327a5.2 5.2 0 0 1-2.439-1.182q-1.044-.95-1.212-2.788-.157-1.719.778-2.94.96-1.254 2.513-1.934a9.8 9.8 0 0 1 3.209-.86z" fill="#1D1D1D"/><rect x="61" y="106" width="315" height="48" rx="24" transform="rotate(-5.789 61 106)" fill="#F8F24B"/><path d="M104.108 114.983q2.458-.25 4.482.533 2.05.75 3.374 2.589 1.32 1.812 1.605 4.624l-5.833.592-.105-1.037q-.138-1.362-1.078-2.074-.91-.716-2.184-.587l-.148.015q-1.243.127-2.015 1.072t-.646 2.19l.58 5.715q.126 1.244 1.072 2.015.945.772 2.189.646l.415-.042q1.273-.13 2.024-.983.778-.887.637-2.279l-.099-.977 5.567-.564q.264 2.605-.634 4.671-.867 2.063-2.658 3.291-1.79 1.229-4.188 1.472l-.829.084q-2.635.267-4.906-.58a8.25 8.25 0 0 1-3.687-2.737q-1.448-1.888-1.725-4.612L95 124.881q-.26-2.576.779-4.716a8.9 8.9 0 0 1 3.054-3.511q1.989-1.338 4.446-1.587zm19.377 3.271q2.221-.225 4.097.572a6.94 6.94 0 0 1 3.083 2.38q1.21 1.612 1.433 3.803l.063.622q.225 2.221-.637 4.044a6.95 6.95 0 0 1-2.543 2.95q-1.681 1.128-3.902 1.353l-.947.096q-2.221.225-4.124-.54a7.4 7.4 0 0 1-3.086-2.409q-1.18-1.615-1.403-3.807l-.063-.622q-.222-2.19.61-4.01a7.2 7.2 0 0 1 2.543-2.951q1.708-1.16 3.929-1.385zm-.11 3.631a1.93 1.93 0 0 0-1.388.769 1.98 1.98 0 0 0-.445 1.511l.447 4.412q.087.858.742 1.421.653.531 1.511.445a1.98 1.98 0 0 0 1.391-.74q.53-.681.442-1.54l-.447-4.412a1.98 1.98 0 0 0-.739-1.391 1.94 1.94 0 0 0-1.514-.475m20.639-5.712a4.3 4.3 0 0 1 2.281.367 4.3 4.3 0 0 1 1.793 1.463q.695.948.818 2.161l1.113 10.986-5.863.595-.96-9.476q-.075-.74-.6-1.196-.498-.488-1.15-.422t-1.071.647q-.393.549-.318 1.289l.96 9.476-5.863.594-1.534-15.131 4.413-.448.814 2.132q1.376-2.653 4.338-2.953zm14.055-1.126 3.553-.36.427 4.205-3.554.36.567 5.597q.121 1.184.61 1.583.516.367 1.285.289.356-.036.909-.182.58-.178.891-.36l.337 3.317q-.651.364-1.848.666-1.196.3-2.054.387-2.606.265-4.124-.539-1.487-.806-1.719-3.086l-.717-7.078-1.658.168-.427-4.204 1.896-.193 1.554-5.033 3.583-.364zm13.797-1.698q2.28-.231 3.999.492 1.745.691 2.76 2.144 1.044 1.45 1.245 3.434l.187 1.835-9.861 1 .144 1.421q.102 1.008.778 1.477.705.468 1.712.365 1.036-.105 1.507-.781.496-.708.382-1.834l5.419-.549q.171 1.688-.579 3.14-.72 1.45-2.328 2.42-1.58.938-3.86 1.169l-.444.045q-2.369.24-4.351-.426-1.956-.699-3.22-2.247-1.237-1.58-1.471-3.889l-.093-.918q-.234-2.31.605-4.07.865-1.793 2.614-2.838 1.745-1.075 4.115-1.315zm-.14 3.634a1.94 1.94 0 0 0-1.388.769 1.98 1.98 0 0 0-.445 1.511l.042.415 4.086-.414-.042-.415a1.98 1.98 0 0 0-.739-1.391 1.94 1.94 0 0 0-1.514-.475m20.204-5.668q1.215-.123 2.281.367a4.33 4.33 0 0 1 1.794 1.464q.694.946.817 2.161l1.114 10.986-5.863.594-.961-9.476q-.075-.74-.599-1.195-.5-.488-1.15-.422-.651.066-1.071.647-.393.548-.318 1.289l.96 9.475-5.863.595-1.534-15.132 4.412-.447.815 2.131q1.376-2.653 4.337-2.953zm14.056-1.125 3.553-.361.426 4.205-3.553.36.567 5.597q.12 1.185.609 1.584.516.366 1.286.288.355-.035.909-.182.58-.179.891-.359l.336 3.316q-.65.366-1.847.666-1.195.301-2.055.388-2.605.264-4.123-.539-1.488-.807-1.719-3.087l-.717-7.077-1.659.168-.426-4.205 1.895-.192 1.554-5.034 3.583-.363zm20.271-7.59q2.457-.249 4.482.533 2.05.75 3.373 2.59 1.321 1.81 1.606 4.624l-5.834.591-.105-1.036q-.138-1.362-1.078-2.075-.91-.715-2.183-.586l-.148.015q-1.244.126-2.015 1.071-.772.947-.646 2.19l.579 5.715q.126 1.244 1.072 2.015t2.19.646l.414-.042q1.273-.13 2.025-.983.777-.887.636-2.278l-.099-.978 5.567-.564q.264 2.606-.633 4.671-.869 2.063-2.658 3.291-1.79 1.229-4.189 1.472l-.829.084q-2.636.267-4.905-.58a8.24 8.24 0 0 1-3.688-2.737q-1.448-1.887-1.724-4.612l-.318-3.139q-.261-2.575.778-4.716a8.86 8.86 0 0 1 3.055-3.51q1.987-1.338 4.446-1.588zm20.324 3.175q1.954-.198 3.132.79 1.203.954 1.395 2.85l.052.503.054 1.131.016.747-4.797.486-.072-.711q-.063-.621-.49-.997-.4-.408-.904-.357-.532.054-.873.537-.313.45-.25 1.072l.985 9.713-5.715.579-1.534-15.131 4.382-.444.874 2.125q.141-.373.585-1.017.442-.643 1.254-1.204.81-.561 1.906-.672m14.091-1.428q2.28-.231 3.999.492 1.746.69 2.76 2.143 1.045 1.45 1.246 3.434l.186 1.836-9.861.999.144 1.422q.103 1.006.778 1.477.706.467 1.712.365 1.037-.106 1.507-.781.496-.71.382-1.834l5.419-.55q.171 1.688-.579 3.141-.72 1.449-2.327 2.419-1.581.938-3.861 1.17l-.444.045q-2.368.24-4.351-.427-1.956-.7-3.219-2.246-1.237-1.58-1.472-3.89l-.093-.918q-.234-2.31.605-4.07.865-1.793 2.614-2.838 1.746-1.074 4.115-1.314zm-.14 3.634a1.94 1.94 0 0 0-1.388.769 1.98 1.98 0 0 0-.445 1.511l.042.414 4.086-.414-.042-.415a1.98 1.98 0 0 0-.739-1.391 1.94 1.94 0 0 0-1.514-.474m17.54-5.398q3.435-.348 5.376.801 1.971 1.146 2.187 3.278l.634 6.249q.057.562.35.802a.9.9 0 0 0 .679.2 2.1 2.1 0 0 0 1.009-.371l.321 3.168q-.877.777-2.922.984-1.895.192-3.053-.318-1.162-.541-1.543-1.639a8 8 0 0 1-1.925 1.96q-1.06.766-2.717.934-2.37.24-3.943-.528-1.574-.768-1.847-3.462-.207-2.044.837-3.256 1.04-1.243 3.131-1.873 2.117-.664 5.433-1l-.087-.859q-.084-.829-.695-1.245-.58-.42-1.41-.336a2.33 2.33 0 0 0-1.261.546q-.553.446-.493 1.038l.012.118-5.626.571q-.039-.087-.072-.412-.13-1.273.628-2.367.783-1.126 2.322-1.881 1.566-.787 3.697-1.003zm2.28 8.624q-1.954.198-2.818.824-.867.597-.774 1.514.144 1.422 1.921 1.242a2 2 0 0 0 1.364-.707q.532-.652.439-1.57zm15.192-10.096 3.553-.36.426 4.204-3.553.361.567 5.596q.12 1.185.61 1.584.515.366 1.285.288.356-.035.909-.182.58-.177.891-.359l.336 3.316q-.65.366-1.847.666-1.196.301-2.054.388-2.607.264-4.124-.539-1.488-.807-1.719-3.087l-.717-7.077-1.658.168-.427-4.205 1.895-.192 1.554-5.034 3.583-.363zm11.319-3.122-5.834.591-.429-4.234 5.834-.592zm1.732 17.086-5.833.591-1.531-15.102 5.833-.591zm9.478-16.547q2.22-.226 4.096.572a6.95 6.95 0 0 1 3.083 2.38q1.21 1.612 1.433 3.803l.063.622q.225 2.221-.637 4.044a6.95 6.95 0 0 1-2.543 2.95q-1.68 1.128-3.901 1.353l-.948.096q-2.221.225-4.123-.54a7.4 7.4 0 0 1-3.087-2.409q-1.18-1.615-1.403-3.807l-.063-.622q-.222-2.19.611-4.01a7.2 7.2 0 0 1 2.543-2.951q1.707-1.16 3.928-1.385zm-.111 3.631a1.93 1.93 0 0 0-1.388.769 1.98 1.98 0 0 0-.445 1.511l.447 4.412a2.1 2.1 0 0 0 .742 1.421q.653.532 1.512.445a1.98 1.98 0 0 0 1.39-.74q.53-.681.443-1.54l-.448-4.412a1.98 1.98 0 0 0-.739-1.391 1.94 1.94 0 0 0-1.514-.475m20.639-5.712q1.215-.123 2.281.367a4.3 4.3 0 0 1 1.794 1.463 4.3 4.3 0 0 1 .817 2.161l1.114 10.986-5.863.595-.961-9.476q-.075-.74-.6-1.196-.498-.488-1.149-.422-.652.066-1.072.647-.393.549-.318 1.289l.961 9.476-5.863.594-1.534-15.132 4.412-.447.814 2.132q1.377-2.653 4.338-2.953z" fill="#1D1D1D"/><rect x="299" y="106" width="102" height="48" rx="24" transform="rotate(-5.789 299 106)" fill="#F8F24B"/><path d="M343.712 115.12a6.1 6.1 0 0 1 3.193.514 6.04 6.04 0 0 1 2.511 2.049 6.1 6.1 0 0 1 1.145 3.025l.066.651a6.26 6.26 0 0 1-.511 3.223 6.1 6.1 0 0 1-2.052 2.482 6.1 6.1 0 0 1-3.025 1.144l-4.59.466.732 7.225-6.218.63-2.059-20.314zm-3.722 9.023 2.724-.276q.83-.084 1.249-.665.417-.61.347-1.292l-.036-.355a1.8 1.8 0 0 0-.596-1.166q-.502-.519-1.36-.431l-2.725.276zm23.4-11.018a5.9 5.9 0 0 1 2.79.375 5.3 5.3 0 0 1 2.283 1.564q.913 1.044 1.063 2.525a4.8 4.8 0 0 1-.29 2.153 5.35 5.35 0 0 1-1.123 1.909q-.753.824-1.743 1.104l.015.148q1.68.338 2.621 1.649.966 1.278 1.165 3.233.141 1.391.51 2.371.365.95 1.369 1.118l.124 1.214q-1.306.7-3.497.923-2.102.213-3.226-.541-1.126-.783-1.336-2.856-.198-1.954-.822-3.088-.597-1.166-2.255-.998l-1.718.174.799 7.877-6.07.615-2.06-20.313zm-4.529 8.447 3.139-.319q.622-.063.994-.519.4-.49.336-1.111l-.03-.296a1.37 1.37 0 0 0-.549-.992 1.37 1.37 0 0 0-1.081-.339l-3.139.318z" fill="#1D1D1D"/><rect x="374.07" width="252" height="48" rx="24" transform="rotate(26.043 374.07 0)" fill="#F8F24B"/><path d="m399.08 50.065-6.686-3.267 3.483-21.024 5.829 2.85-2.357 12.96.106.051 8.749-9.836 5.402 2.64zm19.607-9.533-5.268-2.575 1.868-3.824 5.268 2.575zm-7.54 15.43-5.268-2.575 6.664-13.638 5.268 2.574zm11.843 5.787.29-1.813q-2.372 1.126-4.352.16-1.657-.81-2.616-2.24-.931-1.416-.949-3.346.023-1.942 1.133-4.216l.144-.294q1.11-2.274 2.537-3.498 1.467-1.238 2.995-1.451 1.555-.2 3.027.518 2.513 1.228 2.706 3.41l3.424-7.007 5.295 2.587-9.409 19.254zm2.447-11.923q-.695-.339-1.451-.013-.743.3-1.122 1.075l-1.894 3.878a2.2 2.2 0 0 0-.172 1.572q.219.77.915 1.11.695.34 1.438.04a2.2 2.2 0 0 0 1.135-1.102l1.894-3.878q.38-.776.159-1.545-.206-.796-.902-1.137m18.603 4.95q2.06 1.006 3.138 2.527 1.119 1.507 1.215 3.277.123 1.783-.753 3.574l-.81 1.658-8.905-4.351-.627 1.283q-.445.909-.118 1.665.353.77 1.262 1.213.936.458 1.692.131.795-.339 1.292-1.356l4.893 2.391q-.744 1.525-2.148 2.363-1.376.85-3.253.828-1.837-.036-3.897-1.043l-.401-.196q-2.139-1.044-3.472-2.657-1.293-1.625-1.55-3.606-.217-1.995.801-4.08l.405-.83q1.02-2.085 2.661-3.139 1.68-1.066 3.717-1.032 2.05.008 4.19 1.053zm-2.035 3.013a1.94 1.94 0 0 0-1.585-.078 1.98 1.98 0 0 0-1.175 1.049l-.183.374 3.69 1.803.183-.374q.38-.775.105-1.572a1.93 1.93 0 0 0-1.035-1.202m18.042 4.809q2.006.98 3.179 2.647a6.95 6.95 0 0 1 1.365 3.648q.177 2.009-.789 3.987l-.275.562q-.98 2.005-2.674 3.099a6.94 6.94 0 0 1-3.716 1.165q-2.023.072-4.028-.908l-.856-.418q-2.005-.98-3.219-2.633a7.4 7.4 0 0 1-1.351-3.675q-.151-1.995.816-3.974l.274-.562q.967-1.98 2.634-3.086a7.2 7.2 0 0 1 3.717-1.165q2.063-.086 4.068.895zm-2.009 3.027a1.93 1.93 0 0 0-1.584-.08 2 2 0 0 0-1.176 1.05l-1.947 3.984a2.1 2.1 0 0 0-.118 1.599q.273.795 1.049 1.175a1.98 1.98 0 0 0 1.572.105q.808-.3 1.188-1.075l1.947-3.985q.379-.775.105-1.572a1.94 1.94 0 0 0-1.036-1.201m29.795 10.319-7.728-3.776-1.307 2.674 7.435 3.632-2 4.092-7.434-3.633-1.45 2.968 7.728 3.777-1.608 4.647-13.772-6.73 8.964-18.345 13.772 6.73zm4.883 19.877.29-1.813q-2.373 1.126-4.351.16-1.659-.81-2.616-2.24-.932-1.414-.949-3.345.021-1.943 1.133-4.217l.143-.294q1.112-2.273 2.537-3.497 1.466-1.239 2.996-1.452 1.555-.2 3.026.518 2.514 1.23 2.707 3.41l3.423-7.006 5.295 2.587-9.408 19.254zm2.447-11.922q-.695-.34-1.451-.014-.743.3-1.121 1.075l-1.895 3.878a2.2 2.2 0 0 0-.172 1.572q.22.77.915 1.11t1.438.04a2.2 2.2 0 0 0 1.135-1.102l1.895-3.877q.378-.775.159-1.546-.207-.797-.903-1.136m17.25 2.433-5.268-2.575 1.868-3.824 5.268 2.575zm-7.54 15.429-5.268-2.574 6.664-13.638 5.268 2.574zm15.418-9.393 3.209 1.568-1.855 3.797-3.209-1.568-2.47 5.054q-.523 1.07-.318 1.667.245.584.941.923.32.157.868.325.587.154.946.165l-1.463 2.995q-.746-.033-1.921-.409-1.174-.375-1.95-.754-2.353-1.15-3.219-2.633-.838-1.47.168-3.529l3.123-6.391-1.498-.732 1.856-3.797 1.711.836 3.976-3.457 3.235 1.581zm11.264 3.318-5.268-2.575 1.868-3.824 5.268 2.575zm-7.54 15.429-5.268-2.574 6.664-13.638 5.268 2.574zm18.892-8.027a4.3 4.3 0 0 1 1.744 1.515q.675.992.752 2.189a4.3 4.3 0 0 1-.445 2.267l-4.848 9.921-5.295-2.587 4.182-8.557q.326-.669.121-1.332-.166-.678-.755-.965-.588-.288-1.251-.016-.624.26-.95.928l-4.182 8.557-5.294-2.587 6.677-13.665 3.985 1.947-.433 2.24q2.569-1.527 5.243-.221zm22.08 8.073q-.758 1.551-1.911 2.015-1.128.476-2.794.158.447.915.456 1.846a3.6 3.6 0 0 1-.357 1.747q-.575 1.177-1.781 1.813-1.205.638-2.723.624a7.1 7.1 0 0 1-2.948-.745l-1.845-.902q-.776-.378-1.268-.321-.478.031-.649.379a.77.77 0 0 0 .021.772q.216.37 1.098.802l4.359 2.13q2.14 1.046 2.647 2.718.522 1.645-.407 3.544-.588 1.203-1.846 1.881-1.245.716-2.775.73a6.3 6.3 0 0 1-2.961-.652l-7.087-3.462q-1.31-.641-1.816-2.047-.478-1.393.175-2.731l.066-.133a3.07 3.07 0 0 1 1.424-1.424 4.2 4.2 0 0 1 2.032-.498 3.34 3.34 0 0 1-.439-1.473 2.9 2.9 0 0 1 .293-1.481q.483-.989 1.57-1.452a3.9 3.9 0 0 1 2.288-.207q-.636-1.072-.792-2.176-.156-1.103.301-2.039.928-1.899 3.094-2.331t5.16 1.031l.749.366q.963.471 1.687 1.023 1.342-.172 2.071-.578.741-.432.951-.861zm-10.214.972a1.74 1.74 0 0 0-1.425-.067q-.69.26-1.029.955a1.94 1.94 0 0 0-.134 1.425q.246.717.942 1.056.695.34 1.385.081a1.88 1.88 0 0 0 1.069-.968 1.78 1.78 0 0 0 .094-1.412 1.64 1.64 0 0 0-.902-1.07m-7.587 10.306a1.66 1.66 0 0 0-1.119-.15q-.531.138-.753.593t-.005.958q.231.543.793.818l3.824 1.869q.562.274 1.093.136.558-.124.78-.579t-.009-.999q-.218-.503-.779-.778z" fill="#1D1D1D"/><rect x="241.336" y="30" width="327" height="48" rx="24" transform="rotate(13.661 241.336 30)" fill="#F8F24B"/><path d="m287.632 76.244-6.883-1.673-.088-10.099-.173-.042-4.714 8.932-6.999-1.702-.586-21.154 6.276 1.525.127 11.701.116.028 5.513-10.33 6.218 1.511.098 11.694.116.028 5.483-10.337 5.698 1.385zm18.398-11.487q2.226.541 3.606 1.796 1.416 1.231 1.889 2.94.502 1.714.031 3.652l-.435 1.793-9.631-2.34-.338 1.388q-.238.983.242 1.651.51.675 1.493.915 1.012.245 1.681-.235.704-.503.971-1.602l5.293 1.286q-.401 1.65-1.592 2.768-1.162 1.127-3.001 1.507-1.802.36-4.029-.183l-.434-.105q-2.313-.562-3.961-1.851-1.61-1.31-2.287-3.19-.64-1.902-.092-4.158l.218-.896q.548-2.256 1.925-3.637 1.413-1.403 3.41-1.805 2.004-.432 4.318.13zm-1.343 3.38a1.94 1.94 0 0 0-1.564.263q-.72.438-.923 1.276l-.099.405 3.991.97.099-.404a1.98 1.98 0 0 0-.234-1.558 1.94 1.94 0 0 0-1.27-.952m16.043 2.123q.717-.56 1.835-.871 1.123-.34 2.425-.023 1.59.386 2.631 1.527 1.068 1.148 1.377 3.03.344 1.86-.254 4.319l-.077.318q-.597 2.46-1.851 3.96-1.218 1.481-2.839 1.976t-3.414.058q-3.123-.76-4.261-3.64l-2.494 1.692-2.024-.492 5.061-20.824 5.726 1.392zm1.357 2.229q-.752-.183-1.42.298-.661.45-.865 1.29l-1.02 4.194a2.22 2.22 0 0 0 .17 1.573q.38.704 1.131.887.753.183 1.414-.269.668-.48.872-1.32l1.019-4.193q.204-.84-.176-1.544-.374-.733-1.125-.916m26.592-2.42q2.371.577 4.05 2.24a8.8 8.8 0 0 1 2.386 3.92q.708 2.253.131 4.626l-.604 2.487a8.63 8.63 0 0 1-2.247 4.079 9.1 9.1 0 0 1-3.919 2.386q-2.248.68-4.619.102l-8.937-2.172 4.822-19.84zm-6.51 14.56 2.227.541q1.215.296 2.257-.34 1.043-.635 1.338-1.849l1.202-4.945q.296-1.215-.34-2.258-.634-1.042-1.849-1.338l-2.227-.54zm24.302-5.181q2.227.54 3.607 1.795 1.416 1.233 1.889 2.94.502 1.716.031 3.653l-.436 1.793-9.631-2.34-.337 1.387q-.24.984.241 1.652.51.675 1.494.914 1.012.246 1.68-.235.704-.503.971-1.601l5.293 1.286q-.4 1.65-1.592 2.768-1.162 1.126-3 1.507-1.803.358-4.029-.183l-.434-.106q-2.314-.562-3.961-1.85-1.611-1.311-2.288-3.19-.64-1.903-.092-4.158l.218-.897q.548-2.256 1.925-3.636 1.413-1.403 3.41-1.806 2.004-.431 4.318.13zm-1.342 3.38a1.94 1.94 0 0 0-1.565.263 2 2 0 0 0-.923 1.276l-.098.405 3.991.97.098-.405a1.98 1.98 0 0 0-.234-1.558 1.94 1.94 0 0 0-1.269-.951m25.438 2.783-8.422 13.605-6.623-1.61-1.18-15.939 6.103 1.483.116 8.973.202.049 4.222-7.918zm9.429 1.985q2.227.542 3.607 1.796 1.416 1.231 1.889 2.94.502 1.714.031 3.652l-.436 1.794-9.631-2.341-.337 1.388q-.239.984.242 1.651.51.675 1.493.915 1.012.246 1.68-.235.705-.503.971-1.602l5.293 1.287q-.4 1.648-1.592 2.768-1.161 1.127-3 1.506-1.803.359-4.029-.183l-.434-.105q-2.314-.562-3.961-1.851-1.611-1.31-2.288-3.19-.64-1.902-.092-4.158l.218-.896q.548-2.256 1.925-3.637 1.413-1.403 3.41-1.805 2.005-.432 4.318.13zm-1.342 3.38a1.94 1.94 0 0 0-1.565.263 2 2 0 0 0-.923 1.277l-.098.404 3.991.97.098-.404a1.98 1.98 0 0 0-.234-1.558 1.94 1.94 0 0 0-1.269-.952m17.884-5.455-5.061 20.824-5.727-1.392 5.061-20.824zm9.384 8.377q2.17.527 3.673 1.903a6.95 6.95 0 0 1 2.115 3.27q.604 1.925.084 4.064l-.147.608q-.528 2.169-1.948 3.6a6.94 6.94 0 0 1-3.38 1.935q-1.96.504-4.129-.023l-.926-.225q-2.169-.527-3.708-1.881a7.4 7.4 0 0 1-2.108-3.3q-.576-1.917-.055-4.057l.147-.607q.52-2.14 1.911-3.579a7.2 7.2 0 0 1 3.381-1.935q1.995-.525 4.165.002zm-1.313 3.387a1.94 1.94 0 0 0-1.565.263 2 2 0 0 0-.923 1.276l-1.047 4.309q-.204.84.227 1.587.438.719 1.277.923a1.98 1.98 0 0 0 1.557-.234q.726-.466.93-1.305l1.048-4.31a1.98 1.98 0 0 0-.234-1.557 1.94 1.94 0 0 0-1.27-.952m20.004 1.156q1.794.435 3.007 1.619 1.242 1.19 1.637 3.093.431 1.881-.167 4.34l-.077.318q-.597 2.458-1.764 3.982-1.131 1.502-2.607 2.031-1.448.535-3.038.15-2.72-.662-3.375-2.75l-1.645 6.767-5.727-1.392 4.865-20.013 4.569 1.11.106 1.833q2.019-1.623 4.216-1.088m-2.152 3.183q-.752-.183-1.42.298-.661.451-.865 1.29l-1.019 4.194a2.2 2.2 0 0 0 .169 1.573q.38.705 1.132.887.751.184 1.413-.269.668-.48.872-1.319l1.019-4.194q.204-.839-.176-1.544-.374-.733-1.125-.916m28.748 3.281a4.33 4.33 0 0 1 2.029 1.105 4.33 4.33 0 0 1 1.204 1.978q.339 1.124.051 2.309l-2.608 10.73-5.611-1.363 2.278-9.371q.168-.694-.131-1.226a1.24 1.24 0 0 0-.871-.702 1.33 1.33 0 0 0-1.125.217q-.481.342-.65 1.036l-2.277 9.371-5.611-1.364 2.277-9.37q.169-.695-.13-1.227a1.25 1.25 0 0 0-.871-.702 1.33 1.33 0 0 0-1.125.217q-.482.342-.65 1.037l-2.278 9.37-5.61-1.363 3.592-14.779 4.28 1.04.087 2.288q2.47-1.973 4.582-1.46l.781.19q1.215.296 2.079 1.149a4.26 4.26 0 0 1 1.161 2.028 4.8 4.8 0 0 1 1.992-1.262 4.37 4.37 0 0 1 2.374-.066zm15.1 3.67q2.227.541 3.606 1.795 1.416 1.233 1.889 2.941.503 1.714.032 3.652l-.436 1.793-9.631-2.341-.338 1.389q-.238.983.242 1.651.51.675 1.493.914 1.012.246 1.681-.234.704-.502.971-1.602l5.293 1.286q-.4 1.649-1.592 2.768-1.163 1.127-3 1.507-1.803.359-4.03-.183l-.434-.105q-2.313-.562-3.96-1.851-1.611-1.31-2.288-3.19-.64-1.902-.092-4.158l.218-.897q.548-2.255 1.925-3.636a6.6 6.6 0 0 1 3.41-1.805q2.004-.432 4.318.13zm-1.343 3.38a1.94 1.94 0 0 0-1.564.263q-.72.438-.923 1.276l-.099.405 3.992.97.098-.405a1.98 1.98 0 0 0-.234-1.557 1.93 1.93 0 0 0-1.27-.952m20.94 1.383q1.185.288 2.028 1.106a4.3 4.3 0 0 1 1.204 1.977q.339 1.124.051 2.31l-2.608 10.73-5.726-1.392 2.249-9.255q.177-.724-.167-1.327-.308-.627-.944-.781t-1.225.253q-.554.387-.729 1.11l-2.25 9.255-5.726-1.392 3.592-14.779 4.309 1.047.058 2.281q2.182-2.043 5.074-1.34zm13.627 3.619 3.471.843-.998 4.107-3.471-.843-1.328 5.466q-.282 1.156.047 1.696.365.517 1.116.7.346.084.918.131.606.025.96-.042l-.788 3.239q-.736.127-1.963.013-1.228-.115-2.067-.319-2.546-.618-3.708-1.881-1.134-1.256-.593-3.483l1.68-6.912-1.62-.394.998-4.107 1.851.45 3.142-4.229 3.499.85z" fill="#1D1D1D"/><rect x="100.508" y="107" width="121" height="48" rx="24" transform="rotate(-13.19 100.508 107)" fill="#F8F24B"/><path d="M143.311 110.613q3.535-.83 6.156.177 2.65 1 3.356 4.013l.081.348-5.564 1.304-.027-.116q-.197-.84-.928-1.219-.708-.415-1.925-.13-1.188.279-1.716.769-.533.462-.404 1.012.156.666.946.909.813.207 2.243.178l2.715-.025q5.675-.047 6.701 4.329.835 3.565-1.118 5.796-1.954 2.23-6.098 3.202-2.289.536-4.393.296-2.076-.247-3.597-1.389-1.499-1.177-1.994-3.293l-.082-.347a1.6 1.6 0 0 1-.052-.355l5.621-1.318q-.008.094.053.355.21.898.955 1.335.773.43 2.222.091 1.594-.374 2.099-.828.498-.484.362-1.063-.163-.696-1.056-.853-.9-.187-2.727-.156-2.31.052-3.917-.152-1.585-.24-2.956-1.264-1.379-1.053-1.908-3.313-.475-2.028.293-3.706.798-1.685 2.54-2.858 1.743-1.173 4.119-1.729m26.421-1.057-8.375 1.963.68 2.898 8.055-1.888 1.04 4.434-8.056 1.888.753 3.216 8.375-1.962 1.694 4.616-14.924 3.498-4.659-19.879 14.924-3.498zm11.467-7.762q2.376-.556 4.625.17a8.77 8.77 0 0 1 3.899 2.418q1.65 1.692 2.207 4.068l.706 3.014a8.65 8.65 0 0 1-.162 4.654 9.07 9.07 0 0 1-2.419 3.899q-1.699 1.621-4.075 2.178l-1.623.38q-2.376.558-4.647-.133a9.4 9.4 0 0 1-3.899-2.419q-1.627-1.727-2.185-4.104l-.706-3.013q-.556-2.377.141-4.619a9.1 9.1 0 0 1 2.418-3.899 8.64 8.64 0 0 1 4.097-2.213zm.177 4.667q-1.218.285-1.861 1.322t-.358 2.255l1.311 5.593q.285 1.216 1.322 1.86 1.038.643 2.255.358l.144-.034q1.218-.285 1.861-1.322t.358-2.255l-1.311-5.592q-.285-1.218-1.322-1.861t-2.255-.358z" fill="#1D1D1D"/></svg>